<?xml version="1.0" encoding="utf-8"?>
<!-- Generator: Adobe Illustrator 16.0.3, SVG Export Plug-In . SVG Version: 6.00 Build 0)  -->
<!DOCTYPE svg PUBLIC "-//W3C//DTD SVG 1.1//EN" "http://www.w3.org/Graphics/SVG/1.1/DTD/svg11.dtd">
<svg version="1.1" id="Capa_1" xmlns="http://www.w3.org/2000/svg" xmlns:xlink="http://www.w3.org/1999/xlink" x="0px" y="0px"
	 width="2214.222px" height="486.049px" viewBox="0 0 2214.222 486.049" enable-background="new 0 0 2214.222 486.049"
	 xml:space="preserve">
<g>
	<g>
		<path fill="#F2F2F2" d="M324.983,459.869c0-2.432,0.834-4.49,2.505-6.165c1.67-1.669,3.733-2.503,6.164-2.503
			c2.117,0,3.879,0.98,5.252,2.97c1.353,1.967,1.893,4.174,1.598,6.607c-0.318,2.431-1.54,4.641-3.656,6.61
			c-2.138,1.981-5.477,2.966-10.044,2.966c-8.203,0-15.816-3.726-22.793-11.169c-7.017-7.471-13.626-15.668-19.842-24.635
			c-6.24-8.989-12.253-17.188-18.027-24.639c-5.79-7.458-11.414-11.173-16.89-11.173c-0.613,0-0.986,0.079-1.134,0.229
			c-0.149,0.14-0.538,0.219-1.13,0.219c0.593-2.117,1.504-3.938,2.728-5.473c0.908-1.508,2.281-2.955,4.101-4.33
			c1.839-1.37,4.104-2.211,6.852-2.509V277.842c-4.273,6.701-10.658,12.848-19.161,18.469c-8.518,5.646-17.797,8.453-27.822,8.453
			c-6.702,0-13.087-1.526-19.177-4.573v86.686c3.045,0.298,5.477,1.139,7.315,2.509c1.818,1.375,3.195,2.822,4.102,4.33
			c1.205,1.535,2.116,3.355,2.731,5.473c-0.615,0-0.984-0.079-1.134-0.219c-0.167-0.15-0.54-0.229-1.15-0.229
			c-5.476,0-11.103,3.715-16.876,11.173c-5.771,7.45-11.783,15.649-18.025,24.639c-6.232,8.967-12.768,17.164-19.618,24.635
			c-6.83,7.443-14.368,11.169-22.573,11.169c-5.473,0-9.428-0.984-11.858-2.966c-2.432-1.97-3.734-4.18-3.884-6.61
			c-0.145-2.434,0.616-4.641,2.285-6.607c1.673-1.989,3.715-2.97,6.161-2.97c2.435,0,4.473,0.834,6.166,2.503
			c1.65,1.675,2.507,3.733,2.507,6.165c0,1.821-0.765,3.809-2.287,5.916c6.388,0,11.322-4.095,14.833-12.309
			c3.49-8.218,5.231-21.287,5.231-39.236V276.474c-0.904-6.074-3.189-10.1-6.827-12.085c-3.657-1.971-8.374-2.978-14.146-2.978
			c1.507-2.723,3.196-5.307,5.015-7.732c1.519-1.838,3.414-3.515,5.696-5.028c2.283-1.526,4.788-2.288,7.536-2.288
			c0.593,0,1.061,0.096,1.355,0.241c0.318,0.148,0.763,0.224,1.371,0.224V163.8c2.755,0,4.718-0.914,5.945-2.733
			c0.593-0.925,1.058-1.832,1.355-2.75c-1.209,0.317-3.047,0.467-5.477,0.467c-3.957,0-7-0.687-9.113-2.065
			c-2.136-1.367-3.659-2.799-4.567-4.316c-1.208-1.845-1.987-3.956-2.283-6.391c1.836,0.615,3.191,0.91,4.103,0.91
			c3.355,0,6.775-1.297,10.265-3.881c3.509-2.575,7.217-5.844,11.193-9.818c3.932-3.93,7.816-8.201,11.616-12.769
			c3.808-4.547,7.539-8.668,11.173-12.305c-11.541-1.522-22.27-2.745-32.148-3.661c-9.889-0.911-18.02-1.517-24.406-1.818h-13.236
			c-1.821,0.301-4.102,1.061-6.832,2.284c-2.746,1.208-5.328,2.806-7.76,4.79c-2.449,1.983-4.416,4.399-5.938,7.292
			c-1.521,2.898-1.82,6.464-0.911,10.732c0.612,1.525,0.149,1.814-1.375,0.907c-1.821-1.523-4.101-4.174-6.832-7.98
			c-2.744-3.801-3.503-8.294-2.281-13.456c0-0.612-0.316-0.93-0.912-0.93c-11.86,2.752-22.442,7.615-31.704,14.608
			c-9.284,7.001-15.295,17.34-18.025,31.02c-1.521,8.206-1.296,15.811,0.689,22.813c1.967,6.995,5.009,12.921,9.111,17.779
			c4.123,4.884,9.061,8.671,14.832,11.418c5.773,2.728,11.566,4.103,17.339,4.103c3.34,0,6.606-0.465,9.801-1.375
			c3.19-0.907,6.159-2.43,8.905-4.565c0.598,0,0.913,0.314,0.913,0.927c-3.044,7.594-7.833,13.461-14.37,17.557
			c-6.549,4.111-13.456,6.167-20.769,6.167c-5.773,0-11.399-1.372-16.873-4.122c-5.477-2.727-10.042-7.072-13.68-12.991
			c-3.657-5.942-6.016-13.382-7.07-22.352c-1.063-8.963-0.225-19.843,2.502-32.611c2.732-11.564,7-23.054,12.772-34.457
			c5.773-11.397,12.921-21.657,21.44-30.789c8.52-9.121,18.022-16.58,28.51-22.351c10.491-5.776,21.831-8.669,33.99-8.669
			c7.295,0,17.8,0.612,31.485,1.82c13.679,1.222,28.286,2.748,43.789,4.566c0.904,0,1.814,0.077,2.742,0.224
			c0.913,0.165,1.967,0.241,3.193,0.241c2.433,0,5.014-0.465,7.739-1.372c2.75-0.911,5.331-2.75,7.761-5.479
			c1.227,4.568,0.835,8.741-1.129,12.548c-1.989,3.804-4.417,8.131-7.296,12.993c-2.897,4.884-5.645,10.339-8.226,16.431
			c-2.578,6.089-3.88,13.68-3.88,22.81v131.387c1.526-0.617,2.898-1.076,4.124-1.379c1.208-0.294,2.579-0.454,4.101-0.454
			c5.477,0,10.339,2.127,14.589,6.382c-3.343,0.314-6.091,1.227-8.204,2.745c-2.136,1.232-3.805,2.972-5.03,5.258
			c-1.206,2.261-1.206,5.546,0,9.799c0.614,2.729,2.285,4.788,5.03,6.167c2.732,1.348,5.774,2.038,9.115,2.038
			c4.267,0,8.814-0.986,13.698-2.954c4.845-1.985,9.413-5.028,13.682-9.135c4.251-4.099,7.815-9.43,10.708-15.96
			c2.896-6.536,4.346-14.221,4.346-23.039c0-5.179-1.301-9.351-3.879-12.547c-2.581-3.192-5.7-4.79-9.355-4.79
			c-2.136,0-3.64,0.296-4.569,0.913c0.612-1.822,1.523-3.491,2.75-5.013c2.117-3.345,5.475-5.031,10.042-5.031
			c0.908,0,2.579,0.315,5.012,0.928v-94.891c-1.821-1.222-3.418-2.358-4.79-3.437c-1.372-1.057-2.505-1.891-3.433-2.503
			c-1.208-1.203-2.117-2.278-2.729-3.194l38.775-38.308c1.521,5.176,3.656,10.022,6.388,14.586c2.431,3.66,5.547,7.149,9.353,10.488
			c3.806,3.362,8.596,5.475,14.369,6.402c-0.613,1.524-1.376,3.049-2.284,4.552c-2.134,3.365-5.18,6.385-9.115,9.128V414.24
			c0,17.949,1.748,31.019,5.236,39.236c3.491,8.214,8.276,12.309,14.365,12.309C325.593,464.267,324.983,462.297,324.983,459.869z"
			/>
		<path fill="#F2F2F2" d="M471.867,251.389c3.657,2.121,5.867,5.164,6.627,9.121c0.742,3.95,0.836,6.995,0.222,9.131
			c-2.133-1.519-5.545-2.676-10.265-3.439c-4.712-0.736-10.114-1.126-16.185-1.126c-9.133,0-18.86,1.299-29.197,3.879
			c-10.342,2.58-19.008,6.925-26.008,12.992c-1.818,1.839-3.194,3.359-4.104,4.565l-0.463,0.467c0,0.299-0.149,0.611-0.449,0.907
			c-0.61,0.615-0.924,0.985-0.924,1.131c0,0.169-0.149,0.388-0.447,0.694c-2.133,3.946-2.601,7.749-1.371,11.391
			c1.203,3.662,4.248,5.475,9.133,5.475h2.279c-0.313,1.838-0.926,3.51-1.837,5.035c-0.908,1.522-2.134,2.799-3.635,3.877
			c-1.542,1.058-3.657,1.598-6.388,1.598c-1.54,0-2.748-0.152-3.655-0.463v28.286c2.728,0.911,5.697,2.361,8.892,4.328
			c3.191,1.978,6.388,4.192,9.577,6.626c3.196,2.426,6.089,4.862,8.671,7.292c2.579,2.434,4.488,4.569,5.697,6.382
			c1.838-1.518,3.357-2.573,4.565-3.187c1.208-0.613,3.044-1.522,5.477-2.743V345.35c0-8.197,1.3-14.878,3.878-20.061
			c2.583-5.16,5.773-9.188,9.578-12.085c3.806-2.893,8.061-4.79,12.773-5.712c4.714-0.916,9.061-1.354,13.013-1.354
			c2.431,0,4.547,0.069,6.386,0.22c1.818,0.168,3.489,0.392,5.009,0.686c1.82,0.297,3.341,0.613,4.567,0.912
			c-2.136,0-3.953,0.757-5.476,2.277c-1.523,1.526-2.896,3.662-4.101,6.391c-1.227,2.727-1.839,6.852-1.839,12.324v33.297
			c-22.793,0-43.03,7.594-60.663,22.799c-3.361,2.753-6.013,5.717-7.98,8.903c-1.987,3.195-3.584,6.003-4.788,8.433
			c-1.226,3.043-2.14,6.086-2.751,9.138c-4.563-6.701-9.578-12.777-15.051-18.248c-4.866-4.253-10.659-8.282-17.338-12.087
			c-6.685-3.802-14.146-5.719-22.35-5.719c-5.177,0-9.358,1.225-12.547,3.654c-3.193,2.434-4.788,6.234-4.788,11.402
			c0,4.885,1.208,8.37,3.655,10.506c2.434,2.117,5.309,3.191,8.668,3.191c3.339,0,6.388-0.855,9.115-2.523
			c2.75-1.65,4.714-4.174,5.94-7.516c0-0.303,0.149-0.377,0.445-0.231c0.299,0.154,0.465,0.382,0.465,0.696
			c2.728,6.063,2.503,11.005-0.688,14.807c-3.192,3.809-7.221,5.699-12.085,5.699c-4.881,0-9.356-1.966-13.459-5.918
			c-4.101-3.959-6.161-10.491-6.161-19.618c0-5.481,1.673-11.013,5.012-16.654c3.341-5.625,9.133-10.27,17.337-13.901V208.513
			c0-4.269,1.3-7.904,3.88-10.951c2.58-3.044,5.998-4.865,10.265-5.477c17.022-2.748,32.541-10.044,46.537-21.905
			c3.34-2.728,5.995-5.696,7.978-8.891c1.97-3.192,3.494-6.089,4.569-8.668c1.059-2.582,2.044-5.552,2.952-8.886
			c7.313,11.858,15.59,20.749,24.872,26.671c9.264,5.939,17.413,8.91,24.412,8.91c7.591,0,12.305-3.043,14.125-9.136
			c1.224,2.138,1.838,4.569,1.838,7.299c0,2.746-0.464,5.4-1.374,7.982c-0.909,2.596-2.285,4.879-4.103,6.844
			c-1.821,1.991-3.804,3.272-5.94,3.88V251.389z M428.079,210.333c-2.433-0.914-5.326-2.358-8.669-4.344
			c-3.339-1.967-6.612-4.175-9.802-6.606c-3.189-2.434-6.087-4.866-8.67-7.299c-2.596-2.432-4.491-4.567-5.694-6.385
			c-0.612,0.614-1.227,1.063-1.841,1.353c-0.61,0.316-1.208,0.783-1.816,1.378c-4.271,2.432-6.387,6.087-6.387,10.953v77.09
			c4.564-5.481,10.952-11.009,19.155-16.654c8.223-5.623,16.115-9.356,23.724-11.169V210.333z"/>
		<path fill="#F2F2F2" d="M629.705,359.968l8.668,8.199c1.52,1.524,3.19,2.29,5.03,2.29c0.91,0,1.501-0.152,1.819-0.467l3.191-0.911
			l-34.674,42.438l-31.482-36.054c-5.157,3.047-9.578,6.242-13.215,9.58c-3.361,2.753-6.013,5.717-7.982,8.903
			c-1.986,3.195-3.585,6.003-4.79,8.433c-1.227,3.043-2.136,6.086-2.748,9.138c-4.567-6.701-9.58-12.777-15.051-18.248
			c-4.866-4.253-10.659-8.282-17.338-12.087c-6.685-3.802-14.144-5.719-22.352-5.719c-5.181,0-9.355,1.225-12.543,3.654
			c-3.195,2.434-4.794,6.234-4.794,11.402c0,4.885,1.224,8.37,3.659,10.506c2.43,2.117,5.306,3.191,8.667,3.191
			c3.341,0,6.388-0.855,9.117-2.523c2.746-1.65,4.712-4.174,5.938-7.516c0-0.303,0.149-0.377,0.444-0.231
			c0.299,0.154,0.469,0.382,0.469,0.696c2.726,6.063,2.505,11.005-0.689,14.807c-3.193,3.809-7.222,5.699-12.085,5.699
			c-4.882,0-9.354-1.966-13.458-5.918c-4.099-3.959-6.161-10.491-6.161-19.618c0-5.481,1.669-11.013,5.011-16.654
			c3.337-5.625,9.136-10.27,17.337-13.901v-71.171c-3.042-0.608-5.402-1.89-7.071-3.879c-1.672-1.987-2.972-4.027-3.883-6.165
			c-0.908-2.43-1.352-5.013-1.352-7.753c2.432,1.225,7.444,1.833,15.054,1.833c5.159,0,11.006-0.388,17.558-1.148
			c6.537-0.764,13.072-1.974,19.622-3.636c6.533-1.673,12.844-3.809,18.914-6.407c6.089-2.58,11.251-5.851,15.522-9.801
			c1.204-0.909,2.745-2.582,4.563-5.014c-0.61,0.912-0.316,0.764,0.913-0.464c0-0.293,0.073-0.444,0.22-0.444
			c0.147,0,0.241-0.149,0.241-0.467l0.447-0.904c2.432-3.957,3.044-7.833,1.818-11.641c-1.207-3.806-4.249-5.7-9.115-5.7h-2.282
			c0.297-1.816,0.911-3.657,1.819-5.475c0.91-1.204,2.134-2.355,3.659-3.416c1.521-1.059,3.488-1.597,5.918-1.597
			c1.522,0,2.75,0.149,3.658,0.449v-5.922c-2.432-0.914-5.329-2.358-8.668-4.344c-3.341-1.967-6.61-4.175-9.802-6.606
			c-3.192-2.434-6.087-4.866-8.668-7.299c-2.6-2.432-4.493-4.567-5.696-6.385c-0.617,0.614-1.376,1.133-2.288,1.596
			c-0.91,0.451-1.687,0.983-2.281,1.599c-3.659,2.132-5.479,5.325-5.479,9.579v9.578c0,14.291-3.414,24.56-10.263,30.793
			c-6.848,6.237-14.533,9.358-23.034,9.358c-9.747,0-17.954-2.897-24.633-8.669c0.294,0,0.589,0,0.909,0
			c0.296,0.295,1.059,0.442,2.285,0.442c2.112,0,4.565-1.202,7.293-3.636c2.727-2.433,4.103-7.905,4.103-16.429v-9.133
			c0-7.888,1.523-12.844,4.565-14.811c3.043-1.988,6.852-3.438,11.397-4.344c15.817-2.728,30.721-9.878,44.717-21.442
			c3.339-2.728,5.996-5.696,7.982-8.891c1.967-3.192,3.489-6.089,4.565-8.668c1.058-2.582,2.042-5.552,2.949-8.886
			c7.318,11.858,15.596,20.749,24.88,26.671c9.261,5.939,17.388,8.91,24.409,8.91c7.592,0,12.304-3.043,14.125-9.136
			c1.224,2.138,1.838,4.569,1.838,7.299c0,2.746-0.465,5.4-1.376,7.982c-0.908,2.596-2.283,4.879-4.101,6.844
			c-1.82,1.991-3.805,3.272-5.939,3.88V359.968z M575.869,369.537c1.843-1.518,3.346-2.573,4.571-3.187
			c1.207-0.613,3.044-1.522,5.476-2.743V258.222c-0.296,0.615-1.601,2.068-3.878,4.349c-2.285,2.281-5.237,4.935-8.895,7.978
			c-3.657,3.043-8.055,6.011-13.233,8.894c-5.177,2.896-10.804,5.256-16.876,7.07v58.397c2.731,0.911,5.699,2.361,8.895,4.328
			c3.19,1.978,6.384,4.192,9.578,6.626c3.192,2.426,6.089,4.862,8.667,7.292C572.754,365.589,574.667,367.725,575.869,369.537z"/>
		<path fill="#F2F2F2" d="M746.944,196.652c-1.52,0.297-2.876,0.442-4.102,0.442c-1.207,0-2.434,0-3.638,0
			c-4.271,0-7.538-0.52-9.818-1.592c-2.282-1.059-3.882-2.208-4.79-3.418c-1.206-1.523-1.82-3.191-1.82-5.032
			c3.344,2.453,6.531,3.659,9.578,3.659c3.657,0,7.37-1.285,11.173-3.879c3.804-2.575,7.372-6.071,10.728-10.486
			c3.344-4.4,6.388-9.432,9.119-15.057c2.746-5.624,5.01-11.322,6.848-17.113c1.52,1.519,3.339,3.191,5.477,5.028
			c1.816,1.521,4.026,3.268,6.605,5.24c2.581,1.983,5.404,4.19,8.447,6.622c3.938,2.733,6.829,5.55,8.67,8.431
			c1.818,2.892,2.579,7.832,2.283,14.829v175.172c-10.953,3.361-21.46,7.608-31.482,12.772c-8.517,4.268-16.966,9.893-25.32,16.895
			c-8.37,6.995-14.833,15.499-19.398,25.537c-4.545-7.294-9.574-13.997-15.053-20.061c-4.865-4.866-10.638-9.36-17.337-13.461
			c-6.683-4.117-14.127-6.159-22.351-6.159c-5.178,0-9.356,1.206-12.549,3.638c-3.192,2.448-4.788,6.234-4.788,11.411
			c0,4.864,1.299,8.37,3.88,10.491c2.58,2.117,5.552,3.183,8.891,3.183c3.044,0,6.012-0.832,8.913-2.501
			c2.875-1.664,4.79-4.174,5.695-7.529c0-0.601,0.447-0.446,1.373,0.463c2.43,6.086,2.044,11.021-1.15,14.829
			c-3.191,3.79-7.222,5.696-12.084,5.696c-4.865,0-9.355-1.985-13.457-5.939c-4.101-3.948-6.166-10.491-6.166-19.598
			c0-5.479,1.673-11.029,5.013-16.65c3.361-5.627,9.13-10.271,17.337-13.926V201.199l-8.208-4.104
			c-0.315-0.294-0.757-0.442-1.37-0.442h-1.82c-1.521,0.297-2.893,0.442-4.103,0.442c-1.228,0-2.451,0-3.659,0
			c-4.25,0-7.516-0.52-9.8-1.592c-2.28-1.059-3.878-2.208-4.787-3.418c-1.225-1.523-1.841-3.191-1.841-5.032
			c3.361,2.453,6.554,3.659,9.596,3.659c3.641,0,7.374-1.285,11.178-3.879c3.789-2.575,7.444-6.071,10.931-10.486
			c3.511-4.4,6.628-9.432,9.357-15.057c2.751-5.624,4.867-11.322,6.387-17.113c1.52,1.519,3.506,3.191,5.94,5.028
			c1.818,1.521,3.952,3.268,6.387,5.24c2.43,1.983,5.305,4.19,8.668,6.622c3.638,2.733,6.458,5.55,8.446,8.431
			c1.965,2.892,2.654,7.832,2.04,14.829v160.116c2.748,0.907,5.699,2.361,8.893,4.353c3.195,1.963,6.384,4.176,9.576,6.605
			c3.196,2.432,6.089,4.86,8.669,7.288c2.581,2.456,4.495,4.565,5.716,6.391c1.821-1.527,3.417-2.578,4.791-3.195
			c1.355-0.593,3.25-1.519,5.698-2.729V201.199l-8.222-4.104c-0.299-0.294-0.764-0.442-1.356-0.442H746.944z"/>
		<path fill="#F2F2F2" d="M954.51,251.389c3.656,2.121,5.862,5.164,6.624,9.121c0.745,3.95,0.838,6.995,0.224,9.131
			c-2.134-1.519-5.551-2.676-10.263-3.439c-4.717-0.736-10.12-1.126-16.189-1.126c-9.133,0-18.858,1.299-29.198,3.879
			c-10.339,2.58-19.009,6.925-26.002,12.992c-1.821,1.839-3.196,3.359-4.106,4.565l-0.463,0.467c0,0.299-0.149,0.611-0.446,0.907
			c-0.612,0.615-0.927,0.985-0.927,1.131c0,0.169-0.15,0.388-0.445,0.694c-2.135,3.946-2.604,7.749-1.374,11.391
			c1.206,3.662,4.247,5.475,9.129,5.475h2.286c-0.317,1.838-0.93,3.51-1.839,5.035c-0.909,1.522-2.133,2.799-3.636,3.877
			c-1.542,1.058-3.658,1.598-6.386,1.598c-1.542,0-2.748-0.152-3.657-0.463v28.286c2.727,0.911,5.697,2.361,8.89,4.328
			c3.192,1.978,6.387,4.192,9.578,6.626c3.196,2.426,6.091,4.862,8.671,7.292c2.577,2.434,4.488,4.569,5.696,6.382
			c1.839-1.518,3.359-2.573,4.567-3.187c1.206-0.613,3.043-1.522,5.475-2.743V345.35c0-8.197,1.302-14.878,3.878-20.061
			c2.582-5.16,5.772-9.188,9.579-12.085c3.805-2.893,8.058-4.79,12.773-5.712c4.715-0.916,9.055-1.354,13.012-1.354
			c2.43,0,4.547,0.069,6.385,0.22c1.818,0.168,3.489,0.392,5.01,0.686c1.822,0.297,3.341,0.613,4.569,0.912
			c-2.137,0-3.955,0.757-5.478,2.277c-1.523,1.526-2.896,3.662-4.102,6.391c-1.226,2.727-1.838,6.852-1.838,12.324v33.297
			c-22.795,0-43.025,7.594-60.662,22.799c-3.358,2.753-6.014,5.717-7.981,8.903c-1.988,3.195-3.587,6.003-4.793,8.433
			c-1.224,3.043-2.132,6.086-2.745,9.138c-4.565-6.701-9.578-12.777-15.055-18.248c-4.865-4.253-10.654-8.282-17.337-12.087
			c-6.682-3.802-14.143-5.719-22.348-5.719c-5.181,0-9.355,1.225-12.55,3.654c-3.192,2.434-4.788,6.234-4.788,11.402
			c0,4.885,1.206,8.37,3.657,10.506c2.434,2.117,5.307,3.191,8.668,3.191c3.341,0,6.383-0.855,9.117-2.523
			c2.748-1.65,4.711-4.174,5.937-7.516c0-0.303,0.148-0.377,0.446-0.231c0.297,0.154,0.463,0.382,0.463,0.696
			c2.728,6.063,2.505,11.005-0.686,14.807c-3.192,3.809-7.221,5.699-12.084,5.699c-4.881,0-9.354-1.966-13.457-5.918
			c-4.103-3.959-6.163-10.491-6.163-19.618c0-5.481,1.67-11.013,5.012-16.654c3.338-5.625,9.13-10.27,17.336-13.901V208.513
			c0-4.269,1.302-7.904,3.879-10.951c2.581-3.044,5.998-4.865,10.267-5.477c17.021-2.748,32.54-10.044,46.536-21.905
			c3.341-2.728,5.996-5.696,7.984-8.891c1.967-3.192,3.488-6.089,4.563-8.668c1.058-2.582,2.04-5.552,2.951-8.886
			c7.316,11.858,15.594,20.749,24.873,26.671c9.264,5.939,17.414,8.91,24.412,8.91c7.591,0,12.307-3.043,14.125-9.136
			c1.226,2.138,1.84,4.569,1.84,7.299c0,2.746-0.467,5.4-1.375,7.982c-0.91,2.596-2.283,4.879-4.103,6.844
			c-1.819,1.991-3.806,3.272-5.939,3.88V251.389z M910.721,210.333c-2.432-0.914-5.329-2.358-8.668-4.344
			c-3.343-1.967-6.609-4.175-9.8-6.606c-3.193-2.434-6.089-4.866-8.668-7.299c-2.601-2.432-4.492-4.567-5.699-6.385
			c-0.614,0.614-1.229,1.063-1.839,1.353c-0.612,0.316-1.205,0.783-1.819,1.378c-4.269,2.432-6.384,6.087-6.384,10.953v77.09
			c4.563-5.481,10.95-11.009,19.155-16.654c8.225-5.623,16.11-9.356,23.723-11.169V210.333z"/>
		<path fill="#F2F2F2" d="M1032.048,344.909c3.337,1.208,7.143,3.269,11.393,6.161c4.271,2.879,7.76,6.462,10.507,10.706
			c-4.879,7.621-9.131,14.763-12.792,21.447c-3.335,5.792-6.381,11.344-9.108,16.65c-2.75,5.325-4.42,9.188-5.017,11.643
			c-1.54-6.701-3.972-12.777-7.309-18.248c-2.729-4.253-6.687-8.282-11.862-12.087c-5.163-3.802-11.864-5.719-20.066-5.719
			c-5.18,0-9.359,1.225-12.55,3.654c-3.193,2.434-4.787,6.234-4.787,11.402c0,4.885,1.203,8.37,3.652,10.506
			c2.435,2.117,5.313,3.191,8.671,3.191c3.34,0,6.383-0.855,9.115-2.523c2.748-1.65,4.712-4.174,5.938-7.516
			c0-0.303,0.149-0.377,0.447-0.231c0.294,0.154,0.463,0.382,0.463,0.696c2.729,6.063,2.505,11.005-0.683,14.807
			c-3.196,3.809-7.222,5.699-12.087,5.699c-4.883,0-9.355-1.966-13.458-5.918c-4.103-3.959-6.162-10.491-6.162-19.618
			c0-5.481,1.667-11.013,5.014-16.654c3.337-5.625,9.129-10.27,17.337-13.901V200.756l-8.208-4.104
			c-0.612-0.612-1.222-0.925-1.818-0.925c-0.318,0-0.539,0.088-0.688,0.238c-0.168,0.147-0.389,0.219-0.685,0.219l-10.487,2.731
			c4.249-4.25,9.726-11.246,16.41-20.975c6.699-9.727,12.471-21.142,17.337-34.207c1.519,1.52,3.339,3.187,5.472,5.012
			c1.823,1.519,4.032,3.263,6.611,5.246c2.581,1.969,5.404,4.182,8.446,6.614c3.657,2.428,6.383,5.01,8.204,7.756
			c1.839,2.729,2.75,7.293,2.75,13.678c5.773-3.024,11.544-6.996,17.333-11.86c3.346-2.728,5.995-5.696,7.983-8.891
			c1.968-3.192,3.489-6.089,4.567-8.668c1.06-2.582,2.042-5.552,2.953-8.886c7.311,11.858,15.593,20.749,24.876,26.671
			c9.258,5.939,17.403,8.91,24.407,8.91c7.586,0,12.306-3.043,14.127-9.136c1.226,2.138,1.837,4.569,1.837,7.299
			c0,2.746-0.467,5.4-1.37,7.982c-0.913,2.596-2.288,4.879-4.101,6.844c-1.829,1.991-3.811,3.272-5.946,3.88V369.99
			c0,7.608-1.131,14.216-3.416,19.842c-2.284,5.637-5.252,10.356-8.89,14.141c-3.659,3.809-7.688,6.632-12.085,8.449
			c-4.422,1.818-8.763,2.727-13.012,2.727c-4.867,0-9.283-0.979-13.234-2.954c-3.953-1.981-7-5.094-9.115-9.349h1.815
			c0.912,0,2.213-0.392,3.881-1.152c1.673-0.762,3.27-2.438,4.788-5.015c1.523-2.578,2.805-6.382,3.88-11.396
			c1.06-5.028,1.597-11.937,1.597-20.773V210.333c-2.432-0.914-5.323-2.358-8.667-4.344c-3.341-1.967-6.608-4.175-9.802-6.606
			c-3.194-2.434-6.089-4.866-8.669-7.299c-2.602-2.432-4.492-4.567-5.7-6.385c-1.839,1.522-3.358,2.579-4.566,3.194
			c-1.222,0.612-3.042,1.518-5.472,2.728V344.909z"/>
		<path fill="#F2F2F2" d="M1534.312,64.804c0,1.225-0.15,2.966-0.451,5.249c-0.308,2.287-0.909,4.641-1.835,7.077
			c-0.911,2.428-2.264,4.94-4.103,7.519c-1.814,2.604-4.398,4.954-7.759,7.068v85.313c3.047,0.613,5.404,1.524,7.066,2.729
			c1.677,1.227,2.98,2.603,3.884,4.101c1.224,1.542,2.14,3.362,2.746,5.477c-0.909-0.296-2.133-0.443-3.649-0.443
			c-4.255,0-8.218,1.446-11.859,4.324c-3.64,2.896-7.154,6.625-10.495,11.173c-3.364,4.57-6.776,9.671-10.262,15.295
			c-3.51,5.629-7.221,11.176-11.174,16.653c4.86,3.636,12.233,7.593,22.121,11.862c9.881,4.249,22.572,6.385,38.092,6.385
			c-6.086,6.088-9.135,13.536-9.135,22.351v98.993c3.049,0.609,5.409,1.521,7.074,2.73c1.673,1.221,3.12,2.597,4.347,4.117
			c1.205,1.519,2.119,3.342,2.724,5.457c-6.376,0-14.59,3.355-24.628,10.038c-10.047,6.683-20.235,14.524-30.552,23.501
			c-10.357,8.971-20.012,18.025-28.982,27.138c-8.977,9.135-15.268,16.267-18.928,21.443c-9.43-7.612-19.473-15.053-30.113-22.347
			c-8.816-6.383-18.859-12.939-30.104-19.626c-11.248-6.679-22.663-12.623-34.216-17.777c-3.041-0.617-5.327-0.911-6.852-0.911
			c-3.948,0-7.364,1.056-10.262,3.193c-2.896,2.115-4.027,5.309-3.416,9.573c-1.225-1.22-2.284-2.742-3.191-4.562
			c-0.611-1.224-1.078-2.678-1.368-4.344c-0.305-1.673-0.15-3.567,0.461-5.696c0.296-0.912,0.688-1.75,1.131-2.507
			c0.462-0.762,0.982-1.452,1.595-2.059c-1.524-0.297-3.187-0.526-5.014-0.674c-1.819-0.165-3.8-0.24-5.936-0.24
			c-7.004,0-14.217,1.594-21.665,4.791c-7.458,3.191-13.313,9.972-17.558,20.311c1.202-1.23,3.025-1.823,5.474-1.823
			c2.43,0,4.626,0.98,6.607,2.954c1.971,1.981,2.972,4.176,2.972,6.622c0,2.731-1.001,5.087-2.972,7.078
			c-1.981,1.963-4.178,2.947-6.607,2.947c-3.654,0-6.328-1.892-7.979-5.696c-1.69-3.802-2.283-8.593-1.839-14.368
			c0.457-5.771,2.134-11.937,5.028-18.469c2.877-6.537,6.978-12.7,12.313-18.491c5.326-5.77,12.084-10.557,20.306-14.36
			c8.205-3.795,17.925-5.707,29.196-5.707c9.413,0,19.31,1.37,29.642,4.104v-95.798c-0.907-6.074-3.187-10.1-6.829-12.085
			c-3.653-1.971-8.367-2.978-14.139-2.978c1.504-2.723,3.188-5.307,5.004-7.732c1.524-1.838,3.412-3.515,5.702-5.028
			c2.288-1.526,4.793-2.288,7.533-2.288c0.598,0,1.061,0.096,1.362,0.241c0.309,0.148,0.758,0.224,1.366,0.224V163.8
			c2.749,0,4.714-0.914,5.94-2.733c0.593-0.925,1.06-1.832,1.359-2.75c-1.207,0.317-3.047,0.467-5.477,0.467
			c-3.954,0-7.002-0.687-9.119-2.065c-2.129-1.367-3.653-2.799-4.56-4.316c-1.212-1.845-1.991-3.956-2.285-6.391
			c1.835,0.615,3.191,0.91,4.099,0.91c3.363,0,6.78-1.297,10.266-3.881c3.51-2.575,7.149-5.844,10.958-9.818
			c3.805-3.93,7.608-8.201,11.408-12.769c3.788-4.547,7.52-8.668,11.174-12.305c-11.259-1.522-21.829-2.745-31.703-3.661
			c-9.893-0.911-18.024-1.517-24.406-1.818h-13.24c-1.816,0.301-4.172,1.061-7.066,2.284c-2.896,1.208-5.475,2.806-7.742,4.79
			c-2.284,1.983-4.196,4.399-5.721,7.292c-1.522,2.898-1.813,6.464-0.905,10.732c0,0.907-0.44,1.206-1.371,0.907
			c-1.822-1.523-4.186-4.174-7.056-7.98c-2.897-3.801-3.579-8.294-2.057-13.456c0-0.612-0.467-0.93-1.383-0.93
			c-11.561,2.752-22.052,7.685-31.478,14.83c-9.431,7.15-15.347,17.412-17.78,30.798c-1.524,8.206-1.306,15.811,0.686,22.813
			c1.97,6.995,5.007,12.921,9.117,17.779c4.119,4.884,9.058,8.671,14.829,11.418c5.766,2.728,11.562,4.103,17.332,4.103
			c3.346,0,6.608-0.465,9.804-1.375c3.193-0.907,6.163-2.43,8.916-4.565c0.59,0,0.903,0.314,0.903,0.927
			c-2.448,8.82-6.776,15.501-13.015,20.069c-6.238,4.565-12.986,6.849-20.29,6.849c-5.786,0-11.492-1.52-17.113-4.566
			c-5.623-3.046-10.408-7.685-14.362-13.923c-3.957-6.213-6.547-14.052-7.761-23.478c-1.206-9.433-0.448-20.535,2.286-33.303
			c2.424-11.564,6.607-23.054,12.547-34.457c5.924-11.397,13.065-21.657,21.439-30.789c8.348-9.121,17.855-16.58,28.512-22.351
			c10.631-5.776,22.046-8.669,34.21-8.669c7.594,0,17.949,0.538,31.017,1.596c13.087,1.073,26.986,2.283,41.743,3.655
			c14.762,1.359,29.357,2.807,43.791,4.324c14.441,1.524,26.693,2.9,36.731,4.105c1.51,0.318,2.953,0.465,4.328,0.465
			c1.378,0,2.799,0,4.344,0c8.51,0,14.74-0.982,18.696-2.969c3.946-1.97,6.679-3.716,8.218-5.258
			c0.303-0.59,0.602-0.816,0.909-0.667C1534.161,63.821,1534.312,64.189,1534.312,64.804z M1483.229,416.076
			c5.156-5.788,7.758-12.625,7.758-20.524V255.495c-5.477-3.956-9.579-7.294-12.332-10.043
			c-4.855,5.478-10.875,10.265-18.021,14.368c-7.149,4.106-14.663,6.167-22.573,6.167c-5.788,0-11.714-1.378-17.798-4.106v81.194
			c0,4.268,1.842,8.518,5.474,12.789l-34.675,22.797c9.137,3.948,18.1,8.443,26.922,13.457c8.813,5.024,16.813,9.968,23.958,14.829
			c7.132,4.864,13.295,9.358,18.47,13.457c5.162,4.103,8.818,7.077,10.949,8.888L1483.229,416.076z M1420.263,220.356
			c2.427-1.21,5.179-1.82,8.222-1.82c5.478,0,10.169,1.988,14.146,5.942v0.443c0.298,0,0.444,0.075,0.444,0.244
			c0,0.149-0.146,0.222-0.444,0.222c-4.275,0-7.537,1.372-9.819,4.104c-2.279,2.722-3.489,5.865-3.64,9.352
			c-0.165,3.491,0.813,6.609,2.953,9.358c2.132,2.729,5.173,4.099,9.136,4.099c3.333,0,6.906-0.911,10.706-2.742
			c3.805-1.825,7.318-4.627,10.505-8.427c3.195-3.809,5.847-8.749,7.986-14.836c2.113-6.089,3.191-13.38,3.191-21.904v-72.523
			c0-5.777,1.058-10.951,3.193-15.518c-8.226-0.906-17.038-1.967-26.474-3.189c-9.43-1.206-19.001-2.434-28.739-3.644
			c-0.907,3.644-1.366,8.21-1.366,13.683V220.356z"/>
		<path fill="#F2F2F2" d="M1704.009,251.389c3.654,2.121,5.864,5.164,6.626,9.121c0.739,3.95,0.832,6.995,0.224,9.131
			c-2.136-1.519-5.555-2.676-10.267-3.439c-4.72-0.736-10.113-1.126-16.191-1.126c-9.131,0-18.856,1.299-29.197,3.879
			c-10.337,2.58-19.005,6.925-26.005,12.992c-1.814,1.839-3.193,3.359-4.101,4.565l-0.461,0.467c0,0.299-0.146,0.611-0.448,0.907
			c-0.609,0.615-0.926,0.985-0.926,1.131c0,0.169-0.15,0.388-0.452,0.694c-2.132,3.946-2.595,7.749-1.375,11.391
			c1.21,3.662,4.257,5.475,9.14,5.475h2.281c-0.314,1.838-0.926,3.51-1.837,5.035c-0.907,1.522-2.136,2.799-3.636,3.877
			c-1.541,1.058-3.662,1.598-6.389,1.598c-1.541,0-2.742-0.152-3.654-0.463v28.286c2.73,0.911,5.696,2.361,8.89,4.328
			c3.195,1.978,6.387,4.192,9.578,6.626c3.193,2.426,6.086,4.862,8.666,7.292c2.584,2.434,4.494,4.569,5.7,6.382
			c1.845-1.518,3.363-2.573,4.573-3.187c1.198-0.613,3.039-1.522,5.469-2.743V345.35c0-8.197,1.296-14.878,3.88-20.061
			c2.578-5.16,5.775-9.188,9.575-12.085c3.809-2.893,8.063-4.79,12.775-5.712c4.712-0.916,9.06-1.354,13.01-1.354
			c2.431,0,4.552,0.069,6.389,0.22c1.817,0.168,3.49,0.392,5.013,0.686c1.822,0.297,3.341,0.613,4.562,0.912
			c-2.13,0-3.953,0.757-5.476,2.277c-1.515,1.526-2.889,3.662-4.099,6.391c-1.224,2.727-1.837,6.852-1.837,12.324v33.297
			c-22.795,0-43.034,7.594-60.665,22.799c-3.355,2.753-6.015,5.717-7.982,8.903c-1.983,3.195-3.581,6.003-4.786,8.433
			c-1.229,3.043-2.134,6.086-2.751,9.138c-4.562-6.701-9.571-12.777-15.049-18.248c-4.867-4.253-10.655-8.282-17.336-12.087
			c-6.683-3.802-14.149-5.719-22.353-5.719c-5.183,0-9.358,1.225-12.546,3.654c-3.193,2.434-4.795,6.234-4.795,11.402
			c0,4.885,1.206,8.37,3.662,10.506c2.422,2.117,5.309,3.191,8.671,3.191c3.339,0,6.386-0.855,9.11-2.523
			c2.744-1.65,4.72-4.174,5.944-7.516c0-0.303,0.142-0.377,0.444-0.231c0.298,0.154,0.463,0.382,0.463,0.696
			c2.729,6.063,2.505,11.005-0.692,14.807c-3.191,3.809-7.219,5.699-12.083,5.699c-4.88,0-9.36-1.966-13.455-5.918
			c-4.106-3.959-6.167-10.491-6.167-19.618c0-5.481,1.673-11.013,5.013-16.654c3.343-5.625,9.137-10.27,17.338-13.901V208.513
			c0-4.269,1.295-7.904,3.88-10.951c2.573-3.044,6.002-4.865,10.266-5.477c17.02-2.748,32.539-10.044,46.538-21.905
			c3.337-2.728,5.992-5.696,7.981-8.891c1.964-3.192,3.488-6.089,4.568-8.668c1.06-2.582,2.044-5.552,2.947-8.886
			c7.314,11.858,15.595,20.749,24.87,26.671c9.271,5.939,17.417,8.91,24.412,8.91c7.599,0,12.309-3.043,14.127-9.136
			c1.229,2.138,1.836,4.569,1.836,7.299c0,2.746-0.461,5.4-1.375,7.982c-0.901,2.596-2.279,4.879-4.101,6.844
			c-1.818,1.991-3.8,3.272-5.936,3.88V251.389z M1660.217,210.333c-2.43-0.914-5.326-2.358-8.668-4.344
			c-3.341-1.967-6.607-4.175-9.795-6.606c-3.201-2.434-6.09-4.866-8.682-7.299c-2.591-2.432-4.486-4.567-5.688-6.385
			c-0.617,0.614-1.229,1.063-1.835,1.353c-0.617,0.316-1.212,0.783-1.827,1.378c-4.268,2.432-6.381,6.087-6.381,10.953v77.09
			c4.57-5.481,10.95-11.009,19.155-16.654c8.22-5.623,16.108-9.356,23.721-11.169V210.333z"/>
		<path fill="#F2F2F2" d="M1861.843,359.968l8.672,8.199c1.522,1.524,3.191,2.29,5.032,2.29c0.912,0,1.5-0.152,1.809-0.467
			l3.197-0.911l-34.674,42.438l-31.481-36.054c-5.165,3.047-9.578,6.242-13.216,9.58c-3.361,2.753-6.015,5.717-7.982,8.903
			c-1.987,3.195-3.58,6.003-4.79,8.433c-1.225,3.043-2.14,6.086-2.747,9.138c-4.567-6.701-9.58-12.777-15.053-18.248
			c-4.863-4.253-10.655-8.282-17.336-12.087c-6.683-3.802-14.151-5.719-22.347-5.719c-5.179,0-9.36,1.225-12.55,3.654
			c-3.199,2.434-4.793,6.234-4.793,11.402c0,4.885,1.229,8.37,3.658,10.506c2.435,2.117,5.305,3.191,8.673,3.191
			c3.341,0,6.38-0.855,9.104-2.523c2.757-1.65,4.724-4.174,5.943-7.516c0-0.303,0.15-0.377,0.445-0.231
			c0.298,0.154,0.475,0.382,0.475,0.696c2.72,6.063,2.493,11.005-0.696,14.807c-3.188,3.809-7.223,5.699-12.083,5.699
			c-4.88,0-9.356-1.966-13.455-5.918c-4.108-3.959-6.169-10.491-6.169-19.618c0-5.481,1.679-11.013,5.015-16.654
			c3.341-5.625,9.137-10.27,17.338-13.901v-71.171c-3.047-0.608-5.401-1.89-7.07-3.879c-1.673-1.987-2.972-4.027-3.875-6.165
			c-0.916-2.43-1.364-5.013-1.364-7.753c2.436,1.225,7.45,1.833,15.059,1.833c5.162,0,11.005-0.388,17.56-1.148
			c6.532-0.764,13.063-1.974,19.624-3.636c6.53-1.673,12.844-3.809,18.909-6.407c6.091-2.58,11.251-5.851,15.516-9.801
			c1.216-0.909,2.749-2.582,4.572-5.014c-0.609,0.912-0.319,0.764,0.905-0.464c0-0.293,0.075-0.444,0.225-0.444
			c0.148,0,0.246-0.149,0.246-0.467l0.44-0.904c2.434-3.957,3.047-7.833,1.819-11.641c-1.206-3.806-4.245-5.7-9.115-5.7h-2.284
			c0.299-1.816,0.908-3.657,1.821-5.475c0.903-1.204,2.136-2.355,3.656-3.416c1.519-1.059,3.495-1.597,5.922-1.597
			c1.526,0,2.752,0.149,3.653,0.449v-5.922c-2.426-0.914-5.318-2.358-8.668-4.344c-3.342-1.967-6.607-4.175-9.795-6.606
			c-3.197-2.434-6.09-4.866-8.674-7.299c-2.595-2.432-4.486-4.567-5.7-6.385c-0.605,0.614-1.366,1.133-2.278,1.596
			c-0.911,0.451-1.687,0.983-2.283,1.599c-3.66,2.132-5.474,5.325-5.474,9.579v9.578c0,14.291-3.414,24.56-10.266,30.793
			c-6.855,6.237-14.539,9.358-23.03,9.358c-9.748,0-17.953-2.897-24.641-8.669c0.299,0,0.593,0,0.912,0
			c0.298,0.295,1.056,0.442,2.281,0.442c2.111,0,4.563-1.202,7.298-3.636c2.725-2.433,4.099-7.905,4.099-16.429v-9.133
			c0-7.888,1.522-12.844,4.574-14.811c3.034-1.988,6.839-3.438,11.395-4.344c15.813-2.728,30.716-9.878,44.715-21.442
			c3.341-2.728,5.99-5.696,7.984-8.891c1.965-3.192,3.483-6.089,4.559-8.668c1.063-2.582,2.047-5.552,2.95-8.886
			c7.312,11.858,15.597,20.749,24.878,26.671c9.259,5.939,17.393,8.91,24.404,8.91c7.599,0,12.316-3.043,14.135-9.136
			c1.221,2.138,1.836,4.569,1.836,7.299c0,2.746-0.465,5.4-1.377,7.982c-0.907,2.596-2.277,4.879-4.104,6.844
			c-1.813,1.991-3.802,3.272-5.938,3.88V359.968z M1808.009,369.537c1.845-1.518,3.345-2.573,4.569-3.187
			c1.21-0.613,3.047-1.522,5.473-2.743V258.222c-0.294,0.615-1.596,2.068-3.879,4.349c-2.28,2.281-5.233,4.935-8.89,7.978
			c-3.654,3.043-8.06,6.011-13.233,8.894c-5.181,2.896-10.8,5.256-16.87,7.07v58.397c2.73,0.911,5.688,2.361,8.888,4.328
			c3.189,1.978,6.393,4.192,9.576,6.626c3.197,2.426,6.086,4.862,8.674,7.292C1804.887,365.589,1806.807,367.725,1808.009,369.537z"
			/>
		<path fill="#F2F2F2" d="M1895.614,111.335c-0.621-0.293-1.679-0.458-3.202-0.458c-1.526,0.315-2.889,0.458-4.094,0.458
			c-1.229,0-2.457,0-3.658,0c-4.257,0-7.516-0.458-9.803-1.368c-2.286-0.907-3.88-2.119-4.787-3.659
			c-1.225-1.206-1.842-2.731-1.842-4.545c3.36,2.43,6.558,3.641,9.599,3.641c3.638,0,7.366-1.283,11.175-3.879
			c3.786-2.586,7.369-6.075,10.707-10.495c3.341-4.397,6.388-9.409,9.131-15.053c2.734-5.625,5.012-11.474,6.837-17.559
			c1.519,1.521,3.335,3.192,5.471,5.01c1.848,1.546,4.029,3.285,6.626,5.251c2.588,1.99,5.384,4.179,8.427,6.611
			c3.658,2.752,6.464,5.551,8.449,8.447c1.967,2.895,2.803,7.832,2.509,14.833v73.896h23.254c3.047,0,5.397-0.37,7.068-1.135
			c1.679-0.757,2.974-1.596,3.884-2.524c1.229-0.911,2.138-1.964,2.748-3.191l-8.224,24.634c-1.524,2.744-3.039,4.879-4.543,6.402
			c-1.543,1.523-4.889,2.264-10.051,2.264h-14.137v145.993c4.247,2.727,7.761,5.179,10.485,7.296
			c2.748,2.14,4.865,4.174,6.384,6.163c1.522,1.974,2.824,3.876,3.88,5.696c1.08,1.819,2.215,3.66,3.438,5.473
			c2.113-1.813,3.775-2.889,5.006-3.187c0.611-0.299,1.206-0.613,1.821-0.907V345.35c0-8.491,1.299-15.641,3.879-21.435
			c2.58-5.771,5.944-10.491,10.043-14.146c4.103-3.632,8.504-6.295,13.239-7.978c4.691-1.673,9.036-2.505,12.994-2.505
			c4.249,0,7.824,0.761,10.707,2.277c2.889,1.519,4.342,3.658,4.342,6.391c-2.136,0-4.104,0.757-5.943,2.277
			c-1.521,1.526-2.871,3.662-4.1,6.391c-1.205,2.727-1.813,6.852-1.813,12.324v33.297c-11.566,0-21.768,1.899-30.582,5.704
			c-8.816,3.8-17.635,9.502-26.445,17.095c-3.341,2.753-6.088,5.864-8.205,9.356c-2.132,3.508-3.8,6.776-5.032,9.817
			c-1.21,3.024-2.426,6.683-3.632,10.932c-2.458-7.29-5.804-13.973-10.051-20.067c-3.341-4.859-7.906-9.351-13.678-13.453
			c-5.792-4.101-12.77-6.165-20.997-6.165c-5.174,0-9.35,1.225-12.543,3.654c-3.195,2.434-4.789,6.234-4.789,11.402
			c0,4.885,1.229,8.37,3.654,10.506c2.434,2.117,5.313,3.191,8.672,3.191c3.337,0,6.378-0.855,9.108-2.523
			c2.749-1.65,4.714-4.174,5.94-7.516c0-0.303,0.15-0.377,0.452-0.231c0.313,0.154,0.457,0.382,0.457,0.696
			c2.749,6.063,2.505,11.005-0.682,14.807c-3.191,3.809-7.228,5.699-12.089,5.699c-4.86,0-9.358-1.966-13.461-5.918
			c-4.091-3.959-6.155-10.491-6.155-19.618c0-5.481,1.673-11.013,5.008-16.654c3.361-5.625,9.142-10.27,17.347-13.901v-160.14
			h-10.491c-4.864,0-9.117,1.075-12.775,3.192c-1.814,0.927-3.485,1.987-5.006,3.194l11.857-26.452
			c2.119-4.256,5.476-6.385,10.019-6.385h6.396v-56.56L1895.614,111.335z"/>
		<path fill="#F2F2F2" d="M2177.07,223.104c0,6.386-1.063,11.713-3.189,15.961c-2.136,4.269-4.86,7.762-8.21,10.492
			c-3.352,2.742-7.066,4.639-11.169,5.714c-4.125,1.056-8.154,1.598-12.107,1.598c-5.767,0-10.712-0.93-14.814-2.746
			c-4.117-1.823-6.163-4.103-6.163-6.848h0.911c0.295,0.311,0.912,0.457,1.823,0.457c1.831,0,3.802-0.98,5.944-2.966
			c2.112-1.965,3.183-6.758,3.183-14.364v-19.625c-2.743-0.909-5.79-2.338-9.127-4.32c-3.346-1.97-6.607-4.183-9.801-6.615
			c-3.201-2.43-6.099-4.861-8.673-7.314c-2.58-2.428-4.494-4.542-5.702-6.384c-0.61,0.617-1.218,1.077-1.827,1.373
			c-2.736,1.523-4.872,3.735-6.393,6.61c-1.518,2.896-2.266,6.016-2.266,9.355v43.793c0,2.444,0.6,4.637,1.817,6.622
			c1.21,1.987,3.035,3.413,5.478,4.324l66.604,27.823c4.249,1.841,7.594,4.2,10.042,7.079c2.414,2.896,3.639,8.29,3.639,16.205
			v54.735c-22.812,0-43.195,7.763-61.131,23.264c-3.355,2.743-6.088,5.696-8.201,8.906c-2.14,3.191-3.729,6.076-4.788,8.649
			c-1.072,2.581-2.061,5.721-2.975,9.356c-4.563-6.999-9.573-13.215-15.05-18.688c-4.881-4.565-10.654-8.751-17.337-12.547
			c-6.701-3.809-14.3-5.7-22.815-5.7c-5.177,0-9.356,1.295-12.548,3.877c-3.19,2.58-4.792,6.46-4.792,11.618
			c0,3.047,0.84,6.019,2.505,8.894c1.673,2.896,4.186,4.342,7.55,4.342c2.422,0,4.78-0.538,7.066-1.594
			c2.279-1.08,4.174-2.215,5.695-3.416c1.819-1.838,3.658-3.66,5.481-5.474c0.903,6.072-0.229,10.632-3.416,13.679
			c-3.2,3.039-6.929,4.562-11.196,4.562c-4.248,0-8.276-1.762-12.084-5.254c-3.801-3.481-5.701-9.037-5.701-16.65
			c0-5.477,1.669-11.019,5.011-16.649c3.335-5.626,9.144-10.41,17.341-14.361v-31.019c0-8.226-0.991-13.454-2.969-15.738
			c-1.971-2.286-3.711-3.421-5.229-3.421c-1.234,0-2,0.15-2.29,0.449c-0.321,0-0.615,0.162-0.912,0.463
			c0.912-3.348,4.03-6.238,9.349-8.669c5.316-2.432,11.186-3.655,17.569-3.655c3.342,0,6.677,0.463,10.024,1.374
			c3.355,0.903,6.4,2.422,9.127,4.562c2.732,2.117,4.939,5.01,6.607,8.672c1.673,3.636,2.527,8.058,2.527,13.207v19.627
			c2.732,0.907,5.771,2.358,9.113,4.342c3.354,1.972,6.616,4.176,9.809,6.616c3.184,2.43,6.089,4.855,8.664,7.29
			c2.583,2.432,4.491,4.561,5.719,6.388c1.819-1.206,3.417-2.21,4.785-2.976c1.348-0.743,3.254-1.74,5.698-2.945v-34.679
			c0-5.476-1.147-10.267-3.431-14.36c-2.268-4.111-6.464-6.172-12.529-6.172c0.294-1.818,0.911-3.656,1.818-5.469
			c0.908-1.214,2.205-2.365,3.88-3.416c1.671-1.056,3.713-1.598,6.157-1.598c1.506,0,2.738,0.144,3.649,0.44
			c-0.307-4.548-1.831-8.818-4.565-12.768c-2.734-3.946-6.389-6.837-10.939-8.674l-59.312-25.07
			c-3.956-1.524-6.989-3.366-9.127-5.478c-2.14-2.137-3.194-6.385-3.194-12.788v-26.452c0-6.388,1.295-10.566,3.873-12.549
			c2.584-1.967,5.996-3.269,10.264-3.883c17.347-2.725,33.014-10.167,46.992-22.349c3.354-2.728,6.082-5.696,8.216-8.891
			c2.115-3.192,3.719-6.089,4.793-8.668c1.058-2.582,1.894-5.552,2.505-8.886c7.591,12.151,16.112,21.192,25.544,27.141
			c9.425,5.914,17.631,8.883,24.632,8.883c7.611,0,12.318-3.196,14.146-9.58c1.204,2.138,1.831,4.641,1.831,7.54
			c0,2.895-0.459,5.624-1.368,8.206c-0.913,2.577-2.29,4.858-4.104,6.849c-1.84,1.972-3.803,3.266-5.938,3.878V223.104z"/>
	</g>
	<g>
		<path fill="#191919" d="M324.983,424.541c0-2.437,0.834-4.497,2.505-6.174c1.67-1.66,3.733-2.501,6.164-2.501
			c2.117,0,3.879,0.98,5.252,2.977c1.353,1.963,1.893,4.174,1.598,6.607c-0.318,2.426-1.54,4.641-3.656,6.607
			c-2.138,1.981-5.477,2.968-10.044,2.968c-8.203,0-15.816-3.729-22.793-11.177c-7.017-7.465-13.626-15.664-19.842-24.632
			c-6.24-8.983-12.253-17.185-18.027-24.637c-5.79-7.462-11.414-11.173-16.89-11.173c-0.613,0-0.986,0.075-1.134,0.225
			c-0.149,0.148-0.538,0.228-1.13,0.228c0.593-2.121,1.504-3.94,2.728-5.48c0.908-1.505,2.281-2.948,4.101-4.328
			c1.839-1.373,4.104-2.205,6.852-2.505V242.511c-4.273,6.706-10.658,12.85-19.161,18.471c-8.518,5.642-17.797,8.449-27.822,8.449
			c-6.702,0-13.087-1.522-19.177-4.572v86.687c3.045,0.3,5.477,1.132,7.315,2.505c1.818,1.38,3.195,2.823,4.102,4.328
			c1.205,1.54,2.116,3.359,2.731,5.48c-0.615,0-0.984-0.079-1.134-0.228c-0.167-0.149-0.54-0.225-1.15-0.225
			c-5.476,0-11.103,3.711-16.876,11.173c-5.771,7.452-11.783,15.653-18.025,24.637c-6.232,8.968-12.768,17.167-19.618,24.632
			c-6.83,7.448-14.368,11.177-22.573,11.177c-5.473,0-9.428-0.986-11.858-2.968c-2.432-1.967-3.734-4.182-3.884-6.607
			c-0.145-2.434,0.616-4.645,2.285-6.607c1.673-1.996,3.715-2.977,6.161-2.977c2.435,0,4.473,0.841,6.166,2.501
			c1.65,1.677,2.507,3.737,2.507,6.174c0,1.816-0.765,3.802-2.287,5.911c6.388,0,11.322-4.095,14.833-12.304
			c3.49-8.218,5.231-21.287,5.231-39.236V241.138c-0.904-6.065-3.189-10.098-6.827-12.082c-3.657-1.968-8.374-2.971-14.146-2.971
			c1.507-2.73,3.196-5.313,5.015-7.741c1.519-1.839,3.414-3.509,5.696-5.028c2.283-1.523,4.788-2.285,7.536-2.285
			c0.593,0,1.061,0.095,1.355,0.241c0.318,0.151,0.763,0.222,1.371,0.222v-83.029c2.755,0,4.718-0.912,5.945-2.729
			c0.593-0.923,1.058-1.835,1.355-2.75c-1.209,0.318-3.047,0.468-5.477,0.468c-3.957,0-7-0.689-9.113-2.062
			c-2.136-1.369-3.659-2.805-4.567-4.322c-1.208-1.843-1.987-3.958-2.283-6.391c1.836,0.617,3.191,0.911,4.103,0.911
			c3.355,0,6.775-1.298,10.265-3.876c3.509-2.583,7.217-5.847,11.193-9.822c3.932-3.932,7.816-8.201,11.616-12.77
			c3.808-4.548,7.539-8.668,11.173-12.308c-11.541-1.52-22.27-2.744-32.148-3.659c-9.889-0.907-18.02-1.52-24.406-1.82h-13.236
			c-1.821,0.3-4.102,1.061-6.832,2.287c-2.746,1.21-5.328,2.805-7.76,4.792c-2.449,1.984-4.416,4.4-5.938,7.291
			c-1.521,2.899-1.82,6.464-0.911,10.729c0.612,1.525,0.149,1.82-1.375,0.908c-1.821-1.521-4.101-4.173-6.832-7.977
			c-2.744-3.804-3.503-8.298-2.281-13.458c0-0.613-0.316-0.926-0.912-0.926c-11.86,2.743-22.442,7.605-31.704,14.605
			c-9.284,6.997-15.295,17.335-18.025,31.018c-1.521,8.208-1.296,15.812,0.689,22.81c1.967,7.002,5.009,12.925,9.111,17.785
			c4.123,4.883,9.061,8.671,14.832,11.414c5.773,2.732,11.566,4.108,17.339,4.108c3.34,0,6.606-0.469,9.801-1.375
			c3.19-0.911,6.159-2.433,8.905-4.566c0.598,0,0.913,0.312,0.913,0.924c-3.044,7.595-7.833,13.461-14.37,17.565
			c-6.549,4.104-13.456,6.159-20.769,6.159c-5.773,0-11.399-1.369-16.873-4.124c-5.477-2.724-10.042-7.069-13.68-12.989
			c-3.657-5.941-6.016-13.384-7.07-22.352c-1.063-8.965-0.225-19.843,2.502-32.61c2.732-11.562,7-23.058,12.772-34.452
			c5.773-11.403,12.921-21.661,21.44-30.797c8.52-9.118,18.022-16.574,28.51-22.352c10.491-5.772,21.831-8.667,33.99-8.667
			c7.295,0,17.8,0.614,31.485,1.818c13.679,1.224,28.286,2.754,43.789,4.568c0.904,0,1.814,0.075,2.742,0.222
			c0.913,0.169,1.967,0.243,3.193,0.243c2.433,0,5.014-0.465,7.739-1.372c2.75-0.907,5.331-2.748,7.761-5.479
			c1.227,4.572,0.835,8.746-1.129,12.549c-1.989,3.802-4.417,8.127-7.296,12.992c-2.897,4.882-5.645,10.341-8.226,16.432
			c-2.578,6.091-3.88,13.681-3.88,22.813v131.386c1.526-0.615,2.898-1.077,4.124-1.376c1.208-0.294,2.579-0.463,4.101-0.463
			c5.477,0,10.339,2.136,14.589,6.386c-3.343,0.317-6.091,1.227-8.204,2.749c-2.136,1.226-3.805,2.967-5.03,5.251
			c-1.206,2.263-1.206,5.548,0,9.8c0.614,2.729,2.285,4.792,5.03,6.169c2.732,1.346,5.774,2.038,9.115,2.038
			c4.267,0,8.814-0.983,13.698-2.954c4.845-1.988,9.413-5.028,13.682-9.133c4.251-4.102,7.815-9.431,10.708-15.961
			c2.896-6.539,4.346-14.214,4.346-23.035c0-5.182-1.301-9.354-3.879-12.551c-2.581-3.193-5.7-4.788-9.355-4.788
			c-2.136,0-3.64,0.295-4.569,0.908c0.612-1.821,1.523-3.491,2.75-5.01c2.117-3.343,5.475-5.032,10.042-5.032
			c0.908,0,2.579,0.317,5.012,0.928V78.29c-1.821-1.222-3.418-2.359-4.79-3.435c-1.372-1.056-2.505-1.892-3.433-2.502
			c-1.208-1.204-2.117-2.283-2.729-3.198l38.775-38.305c1.521,5.177,3.656,10.021,6.388,14.584c2.431,3.659,5.547,7.15,9.353,10.489
			c3.806,3.359,8.596,5.476,14.369,6.399c-0.613,1.522-1.376,3.051-2.284,4.551c-2.134,3.365-5.18,6.387-9.115,9.131v302.907
			c0,17.949,1.748,31.019,5.236,39.236c3.491,8.209,8.276,12.304,14.365,12.304C325.593,428.938,324.983,426.965,324.983,424.541z"
			/>
		<path fill="#191919" d="M471.867,216.06c3.657,2.12,5.867,5.164,6.627,9.113c0.742,3.958,0.836,7,0.222,9.135
			c-2.133-1.521-5.545-2.668-10.265-3.433c-4.712-0.745-10.114-1.133-16.185-1.133c-9.133,0-18.86,1.297-29.197,3.878
			c-10.342,2.585-19.008,6.921-26.008,12.994c-1.818,1.838-3.194,3.359-4.104,4.567l-0.463,0.463c0,0.296-0.149,0.613-0.449,0.907
			c-0.61,0.617-0.924,0.99-0.924,1.135c0,0.168-0.149,0.394-0.447,0.692c-2.133,3.95-2.601,7.752-1.371,11.393
			c1.203,3.66,4.248,5.477,9.133,5.477h2.279c-0.313,1.837-0.926,3.506-1.837,5.034c-0.908,1.519-2.134,2.798-3.635,3.874
			c-1.542,1.065-3.657,1.598-6.388,1.598c-1.54,0-2.748-0.15-3.655-0.459v28.282c2.728,0.915,5.697,2.36,8.892,4.332
			c3.191,1.973,6.388,4.188,9.577,6.622c3.196,2.43,6.089,4.863,8.671,7.294c2.579,2.432,4.488,4.565,5.697,6.38
			c1.838-1.519,3.357-2.576,4.565-3.188c1.208-0.608,3.044-1.521,5.477-2.744v-18.256c0-8.197,1.3-14.88,3.878-20.059
			c2.583-5.158,5.773-9.19,9.578-12.083c3.806-2.898,8.061-4.791,12.773-5.717c4.714-0.911,9.061-1.357,13.013-1.357
			c2.431,0,4.547,0.073,6.386,0.228c1.818,0.164,3.489,0.388,5.009,0.686c1.82,0.29,3.341,0.605,4.567,0.907
			c-2.136,0-3.953,0.754-5.476,2.28c-1.523,1.524-2.896,3.656-4.101,6.393c-1.227,2.727-1.839,6.843-1.839,12.32v33.3
			c-22.793,0-43.03,7.595-60.663,22.795c-3.361,2.751-6.013,5.721-7.98,8.91c-1.987,3.193-3.584,5.997-4.788,8.427
			c-1.226,3.047-2.14,6.088-2.751,9.135c-4.563-6.699-9.578-12.774-15.051-18.244c-4.866-4.254-10.659-8.284-17.338-12.088
			c-6.685-3.803-14.146-5.719-22.35-5.719c-5.177,0-9.358,1.224-12.547,3.658c-3.193,2.43-4.788,6.234-4.788,11.398
			c0,4.886,1.208,8.374,3.655,10.505c2.434,2.12,5.309,3.188,8.668,3.188c3.339,0,6.388-0.847,9.115-2.523
			c2.75-1.646,4.714-4.174,5.94-7.515c0-0.299,0.149-0.37,0.445-0.222c0.299,0.15,0.465,0.376,0.465,0.688
			c2.728,6.069,2.503,11.009-0.688,14.813c-3.192,3.809-7.221,5.698-12.085,5.698c-4.881,0-9.356-1.969-13.459-5.921
			c-4.101-3.951-6.161-10.491-6.161-19.618c0-5.481,1.673-11.009,5.012-16.65c3.341-5.627,9.133-10.272,17.337-13.901V173.18
			c0-4.267,1.3-7.903,3.88-10.95c2.58-3.042,5.998-4.864,10.265-5.476c17.022-2.749,32.541-10.042,46.537-21.9
			c3.34-2.733,5.995-5.704,7.978-8.896c1.97-3.193,3.494-6.086,4.569-8.67c1.059-2.577,2.044-5.547,2.952-8.886
			c7.313,11.858,15.59,20.749,24.872,26.672c9.264,5.942,17.413,8.911,24.412,8.911c7.591,0,12.305-3.044,14.125-9.131
			c1.224,2.13,1.838,4.561,1.838,7.297c0,2.741-0.464,5.397-1.374,7.977c-0.909,2.601-2.285,4.883-4.103,6.849
			c-1.821,1.986-3.804,3.271-5.94,3.885V216.06z M428.079,174.998c-2.433-0.907-5.326-2.354-8.669-4.335
			c-3.339-1.969-6.612-4.182-9.802-6.611c-3.189-2.435-6.087-4.863-8.67-7.297c-2.596-2.431-4.491-4.565-5.694-6.386
			c-0.612,0.612-1.227,1.059-1.841,1.355c-0.61,0.316-1.208,0.782-1.816,1.375c-4.271,2.434-6.387,6.091-6.387,10.954v77.086
			c4.564-5.477,10.952-11.008,19.155-16.648c8.223-5.623,16.115-9.359,23.724-11.173V174.998z"/>
		<path fill="#191919" d="M629.705,324.634l8.668,8.201c1.52,1.521,3.19,2.29,5.03,2.29c0.91,0,1.501-0.15,1.819-0.472l3.191-0.901
			l-34.674,42.43l-31.482-36.051c-5.157,3.045-9.578,6.242-13.215,9.579c-3.361,2.751-6.013,5.721-7.982,8.91
			c-1.986,3.193-3.585,5.997-4.79,8.427c-1.227,3.047-2.136,6.088-2.748,9.135c-4.567-6.699-9.58-12.774-15.051-18.244
			c-4.866-4.254-10.659-8.284-17.338-12.088c-6.685-3.803-14.144-5.719-22.352-5.719c-5.181,0-9.355,1.224-12.543,3.658
			c-3.195,2.43-4.794,6.234-4.794,11.398c0,4.886,1.224,8.374,3.659,10.505c2.43,2.12,5.306,3.188,8.667,3.188
			c3.341,0,6.388-0.847,9.117-2.523c2.746-1.646,4.712-4.174,5.938-7.515c0-0.299,0.149-0.37,0.444-0.222
			c0.299,0.15,0.469,0.376,0.469,0.688c2.726,6.069,2.505,11.009-0.689,14.813c-3.193,3.809-7.222,5.698-12.085,5.698
			c-4.882,0-9.354-1.969-13.458-5.921c-4.099-3.951-6.161-10.491-6.161-19.618c0-5.481,1.669-11.009,5.011-16.65
			c3.337-5.627,9.136-10.272,17.337-13.901v-71.177c-3.042-0.611-5.402-1.892-7.071-3.877c-1.672-1.985-2.972-4.025-3.883-6.164
			c-0.908-2.429-1.352-5.011-1.352-7.757c2.432,1.224,7.444,1.839,15.054,1.839c5.159,0,11.006-0.388,17.558-1.152
			c6.537-0.765,13.072-1.97,19.622-3.639c6.533-1.673,12.844-3.805,18.914-6.403c6.089-2.581,11.251-5.847,15.522-9.8
			c1.204-0.908,2.745-2.582,4.563-5.016c-0.61,0.912-0.316,0.763,0.913-0.463c0-0.296,0.073-0.444,0.22-0.444
			c0.147,0,0.241-0.151,0.241-0.465l0.447-0.907c2.432-3.959,3.044-7.833,1.818-11.643c-1.207-3.801-4.249-5.694-9.115-5.694h-2.282
			c0.297-1.82,0.911-3.663,1.819-5.479c0.91-1.203,2.134-2.357,3.659-3.412c1.521-1.06,3.488-1.603,5.918-1.603
			c1.522,0,2.75,0.15,3.658,0.449v-5.924c-2.432-0.907-5.329-2.354-8.668-4.335c-3.341-1.969-6.61-4.182-9.802-6.611
			c-3.192-2.435-6.087-4.863-8.668-7.297c-2.6-2.431-4.493-4.565-5.696-6.386c-0.617,0.612-1.376,1.132-2.288,1.596
			c-0.91,0.45-1.687,0.984-2.281,1.601c-3.659,2.129-5.479,5.326-5.479,9.576v9.582c0,14.289-3.414,24.555-10.263,30.787
			c-6.848,6.243-14.533,9.359-23.034,9.359c-9.747,0-17.954-2.898-24.633-8.666c0.294,0,0.589,0,0.909,0
			c0.296,0.294,1.059,0.441,2.285,0.441c2.112,0,4.565-1.204,7.293-3.636c2.727-2.434,4.103-7.907,4.103-16.428v-9.134
			c0-7.887,1.523-12.846,4.565-14.813c3.043-1.988,6.852-3.433,11.397-4.344c15.817-2.724,30.721-9.872,44.717-21.435
			c3.339-2.733,5.996-5.704,7.982-8.896c1.967-3.193,3.489-6.086,4.565-8.67c1.058-2.577,2.042-5.547,2.949-8.886
			c7.318,11.858,15.596,20.749,24.88,26.672c9.261,5.942,17.388,8.911,24.409,8.911c7.592,0,12.304-3.044,14.125-9.131
			c1.224,2.13,1.838,4.561,1.838,7.297c0,2.741-0.465,5.397-1.376,7.977c-0.908,2.601-2.283,4.883-4.101,6.849
			c-1.82,1.986-3.805,3.271-5.939,3.885V324.634z M575.869,334.205c1.843-1.519,3.346-2.576,4.571-3.188
			c1.207-0.608,3.044-1.521,5.476-2.744V222.89c-0.296,0.612-1.601,2.063-3.878,4.348c-2.285,2.28-5.237,4.934-8.895,7.983
			c-3.657,3.04-8.055,6.013-13.233,8.888c-5.177,2.895-10.804,5.25-16.876,7.072v58.396c2.731,0.915,5.699,2.36,8.895,4.332
			c3.19,1.973,6.384,4.188,9.578,6.622c3.192,2.43,6.089,4.863,8.667,7.294C572.754,330.257,574.667,332.391,575.869,334.205z"/>
		<path fill="#191919" d="M746.944,161.316c-1.52,0.3-2.876,0.452-4.102,0.452c-1.207,0-2.434,0-3.638,0
			c-4.271,0-7.538-0.521-9.818-1.601c-2.282-1.057-3.882-2.208-4.79-3.414c-1.206-1.519-1.82-3.19-1.82-5.031
			c3.344,2.447,6.531,3.66,9.578,3.66c3.657,0,7.37-1.284,11.173-3.883c3.804-2.576,7.372-6.069,10.728-10.484
			c3.344-4.402,6.388-9.431,9.119-15.058c2.746-5.624,5.01-11.321,6.848-17.112c1.52,1.519,3.339,3.193,5.477,5.028
			c1.816,1.523,4.026,3.269,6.605,5.237c2.581,1.982,5.404,4.192,8.447,6.625c3.938,2.729,6.829,5.549,8.67,8.432
			c1.818,2.893,2.579,7.831,2.283,14.827v175.176c-10.953,3.355-21.46,7.612-31.482,12.769c-8.517,4.27-16.966,9.893-25.32,16.892
			c-8.37,6.996-14.833,15.497-19.398,25.538c-4.545-7.288-9.574-13.991-15.053-20.061c-4.865-4.864-10.638-9.356-17.337-13.459
			c-6.683-4.121-14.127-6.159-22.351-6.159c-5.178,0-9.356,1.21-12.549,3.64c-3.192,2.446-4.788,6.236-4.788,11.413
			c0,4.859,1.299,8.365,3.88,10.491c2.58,2.117,5.552,3.187,8.891,3.187c3.044,0,6.012-0.832,8.913-2.505
			c2.875-1.673,4.79-4.178,5.695-7.537c0-0.593,0.447-0.441,1.373,0.463c2.43,6.094,2.044,11.022-1.15,14.831
			c-3.191,3.794-7.222,5.696-12.084,5.696c-4.865,0-9.355-1.979-13.457-5.934c-4.101-3.953-6.166-10.491-6.166-19.604
			c0-5.473,1.673-11.022,5.013-16.646c3.361-5.63,9.13-10.271,17.337-13.924V165.871l-8.208-4.103
			c-0.315-0.301-0.757-0.452-1.37-0.452h-1.82c-1.521,0.3-2.893,0.452-4.103,0.452c-1.228,0-2.451,0-3.659,0
			c-4.25,0-7.516-0.521-9.8-1.601c-2.28-1.057-3.878-2.208-4.787-3.414c-1.225-1.519-1.841-3.19-1.841-5.031
			c3.361,2.447,6.554,3.66,9.596,3.66c3.641,0,7.374-1.284,11.178-3.883c3.789-2.576,7.444-6.069,10.931-10.484
			c3.511-4.402,6.628-9.431,9.357-15.058c2.751-5.624,4.867-11.321,6.387-17.112c1.52,1.519,3.506,3.193,5.94,5.028
			c1.818,1.523,3.952,3.269,6.387,5.237c2.43,1.982,5.305,4.192,8.668,6.625c3.638,2.729,6.458,5.549,8.446,8.432
			c1.965,2.893,2.654,7.831,2.04,14.827v160.122c2.748,0.901,5.699,2.354,8.893,4.344c3.195,1.97,6.384,4.178,9.576,6.608
			c3.196,2.436,6.089,4.863,8.669,7.289c2.581,2.455,4.495,4.568,5.716,6.395c1.821-1.524,3.417-2.584,4.791-3.197
			c1.355-0.595,3.25-1.522,5.698-2.729V165.871l-8.222-4.103c-0.299-0.301-0.764-0.452-1.356-0.452H746.944z"/>
		<path fill="#191919" d="M954.51,216.06c3.656,2.12,5.862,5.164,6.624,9.113c0.745,3.958,0.838,7,0.224,9.135
			c-2.134-1.521-5.551-2.668-10.263-3.433c-4.717-0.745-10.12-1.133-16.189-1.133c-9.133,0-18.858,1.297-29.198,3.878
			c-10.339,2.585-19.009,6.921-26.002,12.994c-1.821,1.838-3.196,3.359-4.106,4.567l-0.463,0.463c0,0.296-0.149,0.613-0.446,0.907
			c-0.612,0.617-0.927,0.99-0.927,1.135c0,0.168-0.15,0.394-0.445,0.692c-2.135,3.95-2.604,7.752-1.374,11.393
			c1.206,3.66,4.247,5.477,9.129,5.477h2.286c-0.317,1.837-0.93,3.506-1.839,5.034c-0.909,1.519-2.133,2.798-3.636,3.874
			c-1.542,1.065-3.658,1.598-6.386,1.598c-1.542,0-2.748-0.15-3.657-0.459v28.282c2.727,0.915,5.697,2.36,8.89,4.332
			c3.192,1.973,6.387,4.188,9.578,6.622c3.196,2.43,6.091,4.863,8.671,7.294c2.577,2.432,4.488,4.565,5.696,6.38
			c1.839-1.519,3.359-2.576,4.567-3.188c1.206-0.608,3.043-1.521,5.475-2.744v-18.256c0-8.197,1.302-14.88,3.878-20.059
			c2.582-5.158,5.772-9.19,9.579-12.083c3.805-2.898,8.058-4.791,12.773-5.717c4.715-0.911,9.055-1.357,13.012-1.357
			c2.43,0,4.547,0.073,6.385,0.228c1.818,0.164,3.489,0.388,5.01,0.686c1.822,0.29,3.341,0.605,4.569,0.907
			c-2.137,0-3.955,0.754-5.478,2.28c-1.523,1.524-2.896,3.656-4.102,6.393c-1.226,2.727-1.838,6.843-1.838,12.32v33.3
			c-22.795,0-43.025,7.595-60.662,22.795c-3.358,2.751-6.014,5.721-7.981,8.91c-1.988,3.193-3.587,5.997-4.793,8.427
			c-1.224,3.047-2.132,6.088-2.745,9.135c-4.565-6.699-9.578-12.774-15.055-18.244c-4.865-4.254-10.654-8.284-17.337-12.088
			c-6.682-3.803-14.143-5.719-22.348-5.719c-5.181,0-9.355,1.224-12.55,3.658c-3.192,2.43-4.788,6.234-4.788,11.398
			c0,4.886,1.206,8.374,3.657,10.505c2.434,2.12,5.307,3.188,8.668,3.188c3.341,0,6.383-0.847,9.117-2.523
			c2.748-1.646,4.711-4.174,5.937-7.515c0-0.299,0.148-0.37,0.446-0.222c0.297,0.15,0.463,0.376,0.463,0.688
			c2.728,6.069,2.505,11.009-0.686,14.813c-3.192,3.809-7.221,5.698-12.084,5.698c-4.881,0-9.354-1.969-13.457-5.921
			c-4.103-3.951-6.163-10.491-6.163-19.618c0-5.481,1.67-11.009,5.012-16.65c3.338-5.627,9.13-10.272,17.336-13.901V173.18
			c0-4.267,1.302-7.903,3.879-10.95c2.581-3.042,5.998-4.864,10.267-5.476c17.021-2.749,32.54-10.042,46.536-21.9
			c3.341-2.733,5.996-5.704,7.984-8.896c1.967-3.193,3.488-6.086,4.563-8.67c1.058-2.577,2.04-5.547,2.951-8.886
			c7.316,11.858,15.594,20.749,24.873,26.672c9.264,5.942,17.414,8.911,24.412,8.911c7.591,0,12.307-3.044,14.125-9.131
			c1.226,2.13,1.84,4.561,1.84,7.297c0,2.741-0.467,5.397-1.375,7.977c-0.91,2.601-2.283,4.883-4.103,6.849
			c-1.819,1.986-3.806,3.271-5.939,3.885V216.06z M910.721,174.998c-2.432-0.907-5.329-2.354-8.668-4.335
			c-3.343-1.969-6.609-4.182-9.8-6.611c-3.193-2.435-6.089-4.863-8.668-7.297c-2.601-2.431-4.492-4.565-5.699-6.386
			c-0.614,0.612-1.229,1.059-1.839,1.355c-0.612,0.316-1.205,0.782-1.819,1.375c-4.269,2.434-6.384,6.091-6.384,10.954v77.086
			c4.563-5.477,10.95-11.008,19.155-16.648c8.225-5.623,16.11-9.359,23.723-11.173V174.998z"/>
		<path fill="#191919" d="M1032.048,309.577c3.337,1.21,7.143,3.271,11.393,6.165c4.271,2.879,7.76,6.461,10.507,10.71
			c-4.879,7.617-9.131,14.757-12.792,21.436c-3.335,5.796-6.381,11.35-9.108,16.654c-2.75,5.322-4.42,9.195-5.017,11.64
			c-1.54-6.699-3.972-12.774-7.309-18.244c-2.729-4.254-6.687-8.284-11.862-12.088c-5.163-3.803-11.864-5.719-20.066-5.719
			c-5.18,0-9.359,1.224-12.55,3.658c-3.193,2.43-4.787,6.234-4.787,11.398c0,4.886,1.203,8.374,3.652,10.505
			c2.435,2.12,5.313,3.188,8.671,3.188c3.34,0,6.383-0.847,9.115-2.523c2.748-1.646,4.712-4.174,5.938-7.515
			c0-0.299,0.149-0.37,0.447-0.222c0.294,0.15,0.463,0.376,0.463,0.688c2.729,6.069,2.505,11.009-0.683,14.813
			c-3.196,3.809-7.222,5.698-12.087,5.698c-4.883,0-9.355-1.969-13.458-5.921c-4.103-3.951-6.162-10.491-6.162-19.618
			c0-5.481,1.667-11.009,5.014-16.65c3.337-5.627,9.129-10.272,17.337-13.901V165.424l-8.208-4.108
			c-0.612-0.604-1.222-0.92-1.818-0.92c-0.318,0-0.539,0.087-0.688,0.236c-0.168,0.147-0.389,0.229-0.685,0.229l-10.487,2.723
			c4.249-4.246,9.726-11.244,16.41-20.974c6.699-9.726,12.471-21.143,17.337-34.208c1.519,1.519,3.339,3.189,5.472,5.012
			c1.823,1.519,4.032,3.267,6.611,5.25c2.581,1.968,5.404,4.183,8.446,6.61c3.657,2.432,6.383,5.009,8.204,7.755
			c1.839,2.731,2.75,7.295,2.75,13.684c5.773-3.027,11.544-6.997,17.333-11.858c3.346-2.733,5.995-5.704,7.983-8.896
			c1.968-3.193,3.489-6.086,4.567-8.67c1.06-2.577,2.042-5.547,2.953-8.886c7.311,11.858,15.593,20.749,24.876,26.672
			c9.258,5.942,17.403,8.911,24.407,8.911c7.586,0,12.306-3.044,14.127-9.131c1.226,2.13,1.837,4.561,1.837,7.297
			c0,2.741-0.467,5.397-1.37,7.977c-0.913,2.601-2.288,4.883-4.101,6.849c-1.829,1.986-3.811,3.271-5.946,3.885v173.792
			c0,7.608-1.131,14.225-3.416,19.846c-2.284,5.646-5.252,10.361-8.89,14.146c-3.659,3.809-7.688,6.632-12.085,8.449
			c-4.422,1.818-8.763,2.726-13.012,2.726c-4.867,0-9.283-0.982-13.234-2.953c-3.953-1.987-7-5.1-9.115-9.356h1.815
			c0.912,0,2.213-0.392,3.881-1.153c1.673-0.757,3.27-2.43,4.788-5.006c1.523-2.58,2.805-6.383,3.88-11.398
			c1.06-5.028,1.597-11.942,1.597-20.771V174.998c-2.432-0.907-5.323-2.354-8.667-4.335c-3.341-1.969-6.608-4.182-9.802-6.611
			c-3.194-2.435-6.089-4.863-8.669-7.297c-2.602-2.431-4.492-4.565-5.7-6.386c-1.839,1.525-3.358,2.58-4.566,3.196
			c-1.222,0.606-3.042,1.518-5.472,2.724V309.577z"/>
		<path fill="#191919" d="M1534.312,29.471c0,1.229-0.15,2.967-0.451,5.252c-0.308,2.281-0.909,4.641-1.835,7.071
			c-0.911,2.432-2.264,4.941-4.103,7.523c-1.814,2.599-4.398,4.951-7.759,7.07v85.314c3.047,0.615,5.404,1.52,7.066,2.724
			c1.677,1.229,2.98,2.607,3.884,4.108c1.224,1.538,2.14,3.359,2.746,5.472c-0.909-0.293-2.133-0.441-3.649-0.441
			c-4.255,0-8.218,1.446-11.859,4.325c-3.64,2.891-7.154,6.622-10.495,11.171c-3.364,4.565-6.776,9.671-10.262,15.293
			c-3.51,5.628-7.221,11.175-11.174,16.654c4.86,3.636,12.233,7.591,22.121,11.86c9.881,4.251,22.572,6.389,38.092,6.389
			c-6.086,6.086-9.135,13.531-9.135,22.346v98.999c3.049,0.607,5.409,1.519,7.074,2.729c1.673,1.22,3.12,2.59,4.347,4.119
			c1.205,1.519,2.119,3.339,2.724,5.456c-6.376,0-14.59,3.352-24.628,10.039c-10.047,6.679-20.235,14.522-30.552,23.501
			c-10.357,8.971-20.012,18.024-28.982,27.14c-8.977,9.129-15.268,16.259-18.928,21.44c-9.43-7.612-19.473-15.05-30.113-22.35
			c-8.816-6.381-18.859-12.939-30.104-19.623c-11.248-6.683-22.663-12.622-34.216-17.776c-3.041-0.621-5.327-0.92-6.852-0.92
			c-3.948,0-7.364,1.064-10.262,3.204c-2.896,2.108-4.027,5.304-3.416,9.571c-1.225-1.22-2.284-2.749-3.191-4.565
			c-0.611-1.229-1.078-2.674-1.368-4.341c-0.305-1.679-0.15-3.57,0.461-5.698c0.296-0.911,0.688-1.752,1.131-2.509
			c0.462-0.761,0.982-1.447,1.595-2.061c-1.524-0.298-3.187-0.518-5.014-0.668c-1.819-0.172-3.8-0.243-5.936-0.243
			c-7.004,0-14.217,1.598-21.665,4.789c-7.458,3.192-13.313,9.969-17.558,20.31c1.202-1.22,3.025-1.82,5.474-1.82
			c2.43,0,4.626,0.984,6.607,2.951c1.971,1.985,2.972,4.178,2.972,6.626c0,2.73-1.001,5.085-2.972,7.075
			c-1.981,1.969-4.178,2.953-6.607,2.953c-3.654,0-6.328-1.896-7.979-5.696c-1.69-3.809-2.283-8.597-1.839-14.372
			c0.457-5.768,2.134-11.933,5.028-18.474c2.877-6.528,6.978-12.691,12.313-18.483c5.326-5.771,12.084-10.563,20.306-14.364
			c8.205-3.79,17.925-5.706,29.196-5.706c9.413,0,19.31,1.37,29.642,4.104v-95.802c-0.907-6.065-3.187-10.098-6.829-12.082
			c-3.653-1.968-8.367-2.971-14.139-2.971c1.504-2.73,3.188-5.313,5.004-7.741c1.524-1.839,3.412-3.509,5.702-5.028
			c2.288-1.523,4.793-2.285,7.533-2.285c0.598,0,1.061,0.095,1.362,0.241c0.309,0.151,0.758,0.222,1.366,0.222v-83.029
			c2.749,0,4.714-0.912,5.94-2.729c0.593-0.923,1.06-1.835,1.359-2.75c-1.207,0.318-3.047,0.468-5.477,0.468
			c-3.954,0-7.002-0.689-9.119-2.062c-2.129-1.369-3.653-2.805-4.56-4.322c-1.212-1.843-1.991-3.958-2.285-6.391
			c1.835,0.617,3.191,0.911,4.099,0.911c3.363,0,6.78-1.298,10.266-3.876c3.51-2.583,7.149-5.847,10.958-9.822
			c3.805-3.932,7.608-8.201,11.408-12.77c3.788-4.548,7.52-8.668,11.174-12.308c-11.259-1.52-21.829-2.744-31.703-3.659
			c-9.893-0.907-18.024-1.52-24.406-1.82h-13.24c-1.816,0.3-4.172,1.061-7.066,2.287c-2.896,1.21-5.475,2.805-7.742,4.792
			c-2.284,1.984-4.196,4.4-5.721,7.291c-1.522,2.899-1.813,6.464-0.905,10.729c0,0.908-0.44,1.208-1.371,0.908
			c-1.822-1.521-4.186-4.173-7.056-7.977c-2.897-3.804-3.579-8.298-2.057-13.458c0-0.613-0.467-0.926-1.383-0.926
			c-11.561,2.743-22.052,7.685-31.478,14.825c-9.431,7.15-15.347,17.412-17.78,30.797c-1.524,8.208-1.306,15.812,0.686,22.81
			c1.97,7.002,5.007,12.925,9.117,17.785c4.119,4.883,9.058,8.671,14.829,11.414c5.766,2.732,11.562,4.108,17.332,4.108
			c3.346,0,6.608-0.469,9.804-1.375c3.193-0.911,6.163-2.433,8.916-4.566c0.59,0,0.903,0.312,0.903,0.924
			c-2.448,8.824-6.776,15.503-13.015,20.071c-6.238,4.562-12.986,6.848-20.29,6.848c-5.786,0-11.492-1.521-17.113-4.563
			c-5.623-3.049-10.408-7.685-14.362-13.926c-3.957-6.215-6.547-14.05-7.761-23.479c-1.206-9.432-0.448-20.533,2.286-33.3
			c2.424-11.562,6.607-23.058,12.547-34.452c5.924-11.403,13.065-21.661,21.439-30.797c8.348-9.118,17.855-16.574,28.512-22.352
			c10.631-5.772,22.046-8.667,34.21-8.667c7.594,0,17.949,0.537,31.017,1.598c13.087,1.075,26.986,2.279,41.743,3.657
			c14.762,1.353,29.357,2.803,43.791,4.324c14.441,1.525,26.693,2.896,36.731,4.102c1.51,0.317,2.953,0.465,4.328,0.465
			c1.378,0,2.799,0,4.344,0c8.51,0,14.74-0.984,18.696-2.97c3.946-1.97,6.679-3.713,8.218-5.252
			c0.303-0.594,0.602-0.816,0.909-0.668C1534.161,28.492,1534.312,28.861,1534.312,29.471z M1483.229,380.747
			c5.156-5.789,7.758-12.624,7.758-20.527V220.163c-5.477-3.956-9.579-7.295-12.332-10.042c-4.855,5.479-10.875,10.267-18.021,14.37
			c-7.149,4.103-14.663,6.164-22.573,6.164c-5.788,0-11.714-1.378-17.798-4.103v81.191c0,4.269,1.842,8.518,5.474,12.789
			l-34.675,22.799c9.137,3.95,18.1,8.44,26.922,13.455c8.813,5.028,16.813,9.967,23.958,14.831
			c7.132,4.866,13.295,9.356,18.47,13.459c5.162,4.099,8.818,7.07,10.949,8.888L1483.229,380.747z M1420.263,185.024
			c2.427-1.207,5.179-1.818,8.222-1.818c5.478,0,10.169,1.983,14.146,5.941v0.443c0.298,0,0.444,0.072,0.444,0.24
			c0,0.151-0.146,0.229-0.444,0.229c-4.275,0-7.537,1.369-9.819,4.097c-2.279,2.733-3.489,5.867-3.64,9.353
			c-0.165,3.493,0.813,6.612,2.953,9.359c2.132,2.731,5.173,4.103,9.136,4.103c3.333,0,6.906-0.911,10.706-2.745
			c3.805-1.82,7.318-4.625,10.505-8.428c3.195-3.807,5.847-8.746,7.986-14.832c2.113-6.09,3.191-13.383,3.191-21.907V96.537
			c0-5.774,1.058-10.95,3.193-15.517c-8.226-0.909-17.038-1.967-26.474-3.188c-9.43-1.21-19.001-2.436-28.739-3.645
			c-0.907,3.645-1.366,8.208-1.366,13.683V185.024z"/>
		<path fill="#191919" d="M1704.009,216.06c3.654,2.12,5.864,5.164,6.626,9.113c0.739,3.958,0.832,7,0.224,9.135
			c-2.136-1.521-5.555-2.668-10.267-3.433c-4.72-0.745-10.113-1.133-16.191-1.133c-9.131,0-18.856,1.297-29.197,3.878
			c-10.337,2.585-19.005,6.921-26.005,12.994c-1.814,1.838-3.193,3.359-4.101,4.567l-0.461,0.463c0,0.296-0.146,0.613-0.448,0.907
			c-0.609,0.617-0.926,0.99-0.926,1.135c0,0.168-0.15,0.394-0.452,0.692c-2.132,3.95-2.595,7.752-1.375,11.393
			c1.21,3.66,4.257,5.477,9.14,5.477h2.281c-0.314,1.837-0.926,3.506-1.837,5.034c-0.907,1.519-2.136,2.798-3.636,3.874
			c-1.541,1.065-3.662,1.598-6.389,1.598c-1.541,0-2.742-0.15-3.654-0.459v28.282c2.73,0.915,5.696,2.36,8.89,4.332
			c3.195,1.973,6.387,4.188,9.578,6.622c3.193,2.43,6.086,4.863,8.666,7.294c2.584,2.432,4.494,4.565,5.7,6.38
			c1.845-1.519,3.363-2.576,4.573-3.188c1.198-0.608,3.039-1.521,5.469-2.744v-18.256c0-8.197,1.296-14.88,3.88-20.059
			c2.578-5.158,5.775-9.19,9.575-12.083c3.809-2.898,8.063-4.791,12.775-5.717c4.712-0.911,9.06-1.357,13.01-1.357
			c2.431,0,4.552,0.073,6.389,0.228c1.817,0.164,3.49,0.388,5.013,0.686c1.822,0.29,3.341,0.605,4.562,0.907
			c-2.13,0-3.953,0.754-5.476,2.28c-1.515,1.524-2.889,3.656-4.099,6.393c-1.224,2.727-1.837,6.843-1.837,12.32v33.3
			c-22.795,0-43.034,7.595-60.665,22.795c-3.355,2.751-6.015,5.721-7.982,8.91c-1.983,3.193-3.581,5.997-4.786,8.427
			c-1.229,3.047-2.134,6.088-2.751,9.135c-4.562-6.699-9.571-12.774-15.049-18.244c-4.867-4.254-10.655-8.284-17.336-12.088
			c-6.683-3.803-14.149-5.719-22.353-5.719c-5.183,0-9.358,1.224-12.546,3.658c-3.193,2.43-4.795,6.234-4.795,11.398
			c0,4.886,1.206,8.374,3.662,10.505c2.422,2.12,5.309,3.188,8.671,3.188c3.339,0,6.386-0.847,9.11-2.523
			c2.744-1.646,4.72-4.174,5.944-7.515c0-0.299,0.142-0.37,0.444-0.222c0.298,0.15,0.463,0.376,0.463,0.688
			c2.729,6.069,2.505,11.009-0.692,14.813c-3.191,3.809-7.219,5.698-12.083,5.698c-4.88,0-9.36-1.969-13.455-5.921
			c-4.106-3.951-6.167-10.491-6.167-19.618c0-5.481,1.673-11.009,5.013-16.65c3.343-5.627,9.137-10.272,17.338-13.901V173.18
			c0-4.267,1.295-7.903,3.88-10.95c2.573-3.042,6.002-4.864,10.266-5.476c17.02-2.749,32.539-10.042,46.538-21.9
			c3.337-2.733,5.992-5.704,7.981-8.896c1.964-3.193,3.488-6.086,4.568-8.67c1.06-2.577,2.044-5.547,2.947-8.886
			c7.314,11.858,15.595,20.749,24.87,26.672c9.271,5.942,17.417,8.911,24.412,8.911c7.599,0,12.309-3.044,14.127-9.131
			c1.229,2.13,1.836,4.561,1.836,7.297c0,2.741-0.461,5.397-1.375,7.977c-0.901,2.601-2.279,4.883-4.101,6.849
			c-1.818,1.986-3.8,3.271-5.936,3.885V216.06z M1660.217,174.998c-2.43-0.907-5.326-2.354-8.668-4.335
			c-3.341-1.969-6.607-4.182-9.795-6.611c-3.201-2.435-6.09-4.863-8.682-7.297c-2.591-2.431-4.486-4.565-5.688-6.386
			c-0.617,0.612-1.229,1.059-1.835,1.355c-0.617,0.316-1.212,0.782-1.827,1.375c-4.268,2.434-6.381,6.091-6.381,10.954v77.086
			c4.57-5.477,10.95-11.008,19.155-16.648c8.22-5.623,16.108-9.359,23.721-11.173V174.998z"/>
		<path fill="#191919" d="M1861.843,324.634l8.672,8.201c1.522,1.521,3.191,2.29,5.032,2.29c0.912,0,1.5-0.15,1.809-0.472
			l3.197-0.901l-34.674,42.43l-31.481-36.051c-5.165,3.045-9.578,6.242-13.216,9.579c-3.361,2.751-6.015,5.721-7.982,8.91
			c-1.987,3.193-3.58,5.997-4.79,8.427c-1.225,3.047-2.14,6.088-2.747,9.135c-4.567-6.699-9.58-12.774-15.053-18.244
			c-4.863-4.254-10.655-8.284-17.336-12.088c-6.683-3.803-14.151-5.719-22.347-5.719c-5.179,0-9.36,1.224-12.55,3.658
			c-3.199,2.43-4.793,6.234-4.793,11.398c0,4.886,1.229,8.374,3.658,10.505c2.435,2.12,5.305,3.188,8.673,3.188
			c3.341,0,6.38-0.847,9.104-2.523c2.757-1.646,4.724-4.174,5.943-7.515c0-0.299,0.15-0.37,0.445-0.222
			c0.298,0.15,0.475,0.376,0.475,0.688c2.72,6.069,2.493,11.009-0.696,14.813c-3.188,3.809-7.223,5.698-12.083,5.698
			c-4.88,0-9.356-1.969-13.455-5.921c-4.108-3.951-6.169-10.491-6.169-19.618c0-5.481,1.679-11.009,5.015-16.65
			c3.341-5.627,9.137-10.272,17.338-13.901v-71.177c-3.047-0.611-5.401-1.892-7.07-3.877c-1.673-1.985-2.972-4.025-3.875-6.164
			c-0.916-2.429-1.364-5.011-1.364-7.757c2.436,1.224,7.45,1.839,15.059,1.839c5.162,0,11.005-0.388,17.56-1.152
			c6.532-0.765,13.063-1.97,19.624-3.639c6.53-1.673,12.844-3.805,18.909-6.403c6.091-2.581,11.251-5.847,15.516-9.8
			c1.216-0.908,2.749-2.582,4.572-5.016c-0.609,0.912-0.319,0.763,0.905-0.463c0-0.296,0.075-0.444,0.225-0.444
			c0.148,0,0.246-0.151,0.246-0.465l0.44-0.907c2.434-3.959,3.047-7.833,1.819-11.643c-1.206-3.801-4.245-5.694-9.115-5.694h-2.284
			c0.299-1.82,0.908-3.663,1.821-5.479c0.903-1.203,2.136-2.357,3.656-3.412c1.519-1.06,3.495-1.603,5.922-1.603
			c1.526,0,2.752,0.15,3.653,0.449v-5.924c-2.426-0.907-5.318-2.354-8.668-4.335c-3.342-1.969-6.607-4.182-9.795-6.611
			c-3.197-2.435-6.09-4.863-8.674-7.297c-2.595-2.431-4.486-4.565-5.7-6.386c-0.605,0.612-1.366,1.132-2.278,1.596
			c-0.911,0.45-1.687,0.984-2.283,1.601c-3.66,2.129-5.474,5.326-5.474,9.576v9.582c0,14.289-3.414,24.555-10.266,30.787
			c-6.855,6.243-14.539,9.359-23.03,9.359c-9.748,0-17.953-2.898-24.641-8.666c0.299,0,0.593,0,0.912,0
			c0.298,0.294,1.056,0.441,2.281,0.441c2.111,0,4.563-1.204,7.298-3.636c2.725-2.434,4.099-7.907,4.099-16.428v-9.134
			c0-7.887,1.522-12.846,4.574-14.813c3.034-1.988,6.839-3.433,11.395-4.344c15.813-2.724,30.716-9.872,44.715-21.435
			c3.341-2.733,5.99-5.704,7.984-8.896c1.965-3.193,3.483-6.086,4.559-8.67c1.063-2.577,2.047-5.547,2.95-8.886
			c7.312,11.858,15.597,20.749,24.878,26.672c9.259,5.942,17.393,8.911,24.404,8.911c7.599,0,12.316-3.044,14.135-9.131
			c1.221,2.13,1.836,4.561,1.836,7.297c0,2.741-0.465,5.397-1.377,7.977c-0.907,2.601-2.277,4.883-4.104,6.849
			c-1.813,1.986-3.802,3.271-5.938,3.885V324.634z M1808.009,334.205c1.845-1.519,3.345-2.576,4.569-3.188
			c1.21-0.608,3.047-1.521,5.473-2.744V222.89c-0.294,0.612-1.596,2.063-3.879,4.348c-2.28,2.28-5.233,4.934-8.89,7.983
			c-3.654,3.04-8.06,6.013-13.233,8.888c-5.181,2.895-10.8,5.25-16.87,7.072v58.396c2.73,0.915,5.688,2.36,8.888,4.332
			c3.189,1.973,6.393,4.188,9.576,6.622c3.197,2.43,6.086,4.863,8.674,7.294C1804.887,330.257,1806.807,332.391,1808.009,334.205z"
			/>
		<path fill="#191919" d="M1895.614,76.005c-0.621-0.292-1.679-0.46-3.202-0.46c-1.526,0.32-2.889,0.46-4.094,0.46
			c-1.229,0-2.457,0-3.658,0c-4.257,0-7.516-0.46-9.803-1.368c-2.286-0.913-3.88-2.123-4.787-3.656
			c-1.225-1.21-1.842-2.734-1.842-4.552c3.36,2.433,6.558,3.641,9.599,3.641c3.638,0,7.366-1.283,11.175-3.88
			c3.786-2.584,7.369-6.073,10.707-10.487c3.341-4.402,6.388-9.411,9.131-15.057c2.734-5.625,5.012-11.472,6.837-17.561
			c1.519,1.522,3.335,3.193,5.471,5.011c1.848,1.543,4.029,3.288,6.626,5.248c2.588,1.996,5.384,4.185,8.427,6.618
			c3.658,2.746,6.464,5.547,8.449,8.446c1.967,2.893,2.803,7.83,2.509,14.832v73.896h23.254c3.047,0,5.397-0.372,7.068-1.136
			c1.679-0.757,2.974-1.594,3.884-2.525c1.229-0.91,2.138-1.961,2.748-3.192l-8.224,24.634c-1.524,2.744-3.039,4.881-4.543,6.399
			c-1.543,1.525-4.889,2.268-10.051,2.268h-14.137v145.993c4.247,2.729,7.761,5.183,10.485,7.3c2.748,2.136,4.865,4.174,6.384,6.159
			c1.522,1.971,2.824,3.879,3.88,5.7c1.08,1.818,2.215,3.654,3.438,5.469c2.113-1.814,3.775-2.889,5.006-3.188
			c0.611-0.298,1.206-0.608,1.821-0.907v-20.093c0-8.496,1.299-15.646,3.879-21.431c2.58-5.775,5.944-10.491,10.043-14.146
			c4.103-3.64,8.504-6.299,13.239-7.986c4.691-1.669,9.036-2.501,12.994-2.501c4.249,0,7.824,0.762,10.707,2.284
			c2.889,1.517,4.342,3.651,4.342,6.384c-2.136,0-4.104,0.754-5.943,2.28c-1.521,1.524-2.871,3.656-4.1,6.393
			c-1.205,2.727-1.813,6.843-1.813,12.32v33.3c-11.566,0-21.768,1.893-30.582,5.7c-8.816,3.805-17.635,9.505-26.445,17.095
			c-3.341,2.751-6.088,5.869-8.205,9.356c-2.132,3.504-3.8,6.774-5.032,9.813c-1.21,3.033-2.426,6.687-3.632,10.939
			c-2.458-7.292-5.804-13.979-10.051-20.066c-3.341-4.86-7.906-9.351-13.678-13.459c-5.792-4.099-12.77-6.163-20.997-6.163
			c-5.174,0-9.35,1.224-12.543,3.658c-3.195,2.43-4.789,6.234-4.789,11.398c0,4.886,1.229,8.374,3.654,10.505
			c2.434,2.12,5.313,3.188,8.672,3.188c3.337,0,6.378-0.847,9.108-2.523c2.749-1.646,4.714-4.174,5.94-7.515
			c0-0.299,0.15-0.37,0.452-0.222c0.313,0.15,0.457,0.376,0.457,0.688c2.749,6.069,2.505,11.009-0.682,14.813
			c-3.191,3.809-7.228,5.698-12.089,5.698c-4.86,0-9.358-1.969-13.461-5.921c-4.091-3.951-6.155-10.491-6.155-19.618
			c0-5.481,1.673-11.009,5.008-16.65c3.361-5.627,9.142-10.272,17.347-13.901V163.584h-10.491c-4.864,0-9.117,1.077-12.775,3.195
			c-1.814,0.924-3.485,1.982-5.006,3.189l11.857-26.446c2.119-4.255,5.476-6.386,10.019-6.386h6.396V80.574L1895.614,76.005z"/>
		<path fill="#191919" d="M2177.07,187.774c0,6.381-1.063,11.711-3.189,15.963c-2.136,4.266-4.86,7.758-8.21,10.489
			c-3.352,2.745-7.066,4.641-11.169,5.712c-4.125,1.059-8.154,1.603-12.107,1.603c-5.767,0-10.712-0.932-14.814-2.751
			c-4.117-1.819-6.163-4.099-6.163-6.849h0.911c0.295,0.315,0.912,0.466,1.823,0.466c1.831,0,3.802-0.983,5.944-2.973
			c2.112-1.965,3.183-6.759,3.183-14.362v-19.625c-2.743-0.908-5.79-2.336-9.127-4.32c-3.346-1.97-6.607-4.178-9.801-6.615
			c-3.201-2.428-6.099-4.858-8.673-7.311c-2.58-2.428-4.494-4.546-5.702-6.388c-0.61,0.615-1.218,1.082-1.827,1.377
			c-2.736,1.523-4.872,3.731-6.393,6.607c-1.518,2.898-2.266,6.015-2.266,9.353v43.792c0,2.453,0.6,4.643,1.817,6.627
			c1.21,1.988,3.035,3.413,5.478,4.323l66.604,27.827c4.249,1.835,7.594,4.2,10.042,7.072c2.414,2.898,3.639,8.297,3.639,16.208
			v54.739c-22.812,0-43.195,7.755-61.131,23.258c-3.355,2.749-6.088,5.696-8.201,8.908c-2.14,3.19-3.729,6.073-4.788,8.653
			c-1.072,2.572-2.061,5.721-2.975,9.356c-4.563-6.999-9.573-13.22-15.05-18.692c-4.881-4.565-10.654-8.749-17.337-12.548
			c-6.701-3.808-14.3-5.7-22.815-5.7c-5.177,0-9.356,1.3-12.548,3.878c-3.19,2.584-4.792,6.463-4.792,11.621
			c0,3.043,0.84,6.012,2.505,8.886c1.673,2.901,4.186,4.354,7.55,4.354c2.422,0,4.78-0.546,7.066-1.604
			c2.279-1.074,4.174-2.209,5.695-3.415c1.819-1.833,3.658-3.66,5.481-5.473c0.903,6.069-0.229,10.636-3.416,13.679
			c-3.2,3.043-6.929,4.565-11.196,4.565c-4.248,0-8.276-1.763-12.084-5.254c-3.801-3.481-5.701-9.042-5.701-16.65
			c0-5.475,1.669-11.027,5.011-16.65c3.335-5.625,9.144-10.412,17.341-14.364v-31.021c0-8.22-0.991-13.453-2.969-15.739
			c-1.971-2.283-3.711-3.418-5.229-3.418c-1.234,0-2,0.148-2.29,0.446c-0.321,0-0.615,0.169-0.912,0.469
			c0.912-3.345,4.03-6.238,9.349-8.67c5.316-2.434,11.186-3.658,17.569-3.658c3.342,0,6.677,0.463,10.024,1.37
			c3.355,0.914,6.4,2.431,9.127,4.565c2.732,2.115,4.939,5.013,6.607,8.669c1.673,3.64,2.527,8.059,2.527,13.215v19.626
			c2.732,0.906,5.771,2.359,9.113,4.343c3.354,1.971,6.616,4.178,9.809,6.607c3.184,2.43,6.089,4.86,8.664,7.294
			c2.583,2.437,4.491,4.562,5.719,6.393c1.819-1.21,3.417-2.219,4.785-2.972c1.348-0.747,3.254-1.748,5.698-2.954v-34.675
			c0-5.477-1.147-10.27-3.431-14.364c-2.268-4.106-6.464-6.169-12.529-6.169c0.294-1.817,0.911-3.654,1.818-5.471
			c0.908-1.212,2.205-2.361,3.88-3.417c1.671-1.056,3.713-1.598,6.157-1.598c1.506,0,2.738,0.148,3.649,0.442
			c-0.307-4.545-1.831-8.816-4.565-12.765c-2.734-3.954-6.389-6.835-10.939-8.674l-59.312-25.076
			c-3.956-1.523-6.989-3.361-9.127-5.477c-2.14-2.133-3.194-6.381-3.194-12.79v-26.452c0-6.383,1.295-10.559,3.873-12.546
			c2.584-1.968,5.996-3.27,10.264-3.879c17.347-2.729,33.014-10.167,46.992-22.346c3.354-2.733,6.082-5.704,8.216-8.896
			c2.115-3.193,3.719-6.086,4.793-8.67c1.058-2.577,1.894-5.547,2.505-8.886c7.591,12.154,16.112,21.192,25.544,27.141
			c9.425,5.912,17.631,8.883,24.632,8.883c7.611,0,12.318-3.193,14.146-9.572c1.204,2.13,1.831,4.635,1.831,7.535
			c0,2.891-0.459,5.626-1.368,8.203c-0.913,2.581-2.29,4.865-4.104,6.85c-1.84,1.971-3.803,3.271-5.938,3.875V187.774z"/>
	</g>
</g>
</svg>
